ISO-10303-21;
HEADER;
/* Generated by software containing ST-Developer
 * from STEP Tools, Inc. (www.steptools.com) 
 */
/* OPTION: using custom renumber hook */

FILE_DESCRIPTION(
/* description */ ('STEP AP242 Edition 2',
'CAx-IF Rec.Pracs.---Representation and Presentation of Product Manufa
cturing Information (PMI)---4.0---2014-10-13',
'CAx-IF Rec.Pracs.---3D Tessellated Geometry---0.4---2014-09-14','2;1',
'CAx-IF Rec.Pracs.---User Defined Attributes---1.5---2016-08-15'),
/* implementation_level */ '2;1');

FILE_NAME(
/* name */ 'BottomRail - Part 1',
/* time_stamp */ '2026-09-13T13:25:14Z',
/* author */ (''),
/* organization */ (''),
/* preprocessor_version */ 'ST-DEVELOPER v20',
/* originating_system */ 'ONSHAPE BY PTC INC, 1.220',
/* authorisation */ '  ');

FILE_SCHEMA (('AP242_MANAGED_MODEL_BASED_3D_ENGINEERING_MIM_LF { 1 0 10303 442 3 1 4 }'));
ENDSEC;

DATA;
#10=SHAPE_REPRESENTATION_RELATIONSHIP('','',#475,#11);
#11=ADVANCED_BREP_SHAPE_REPRESENTATION('',(#473),#767);
#12=CYLINDRICAL_SURFACE('',#501,0.009);
#13=CYLINDRICAL_SURFACE('',#503,0.009);
#14=CYLINDRICAL_SURFACE('',#509,0.005);
#15=CONICAL_SURFACE('',#490,0.0065,0.380506377112364);
#16=CONICAL_SURFACE('',#498,0.0065,0.380506377112364);
#17=CIRCLE('',#482,0.005);
#18=CIRCLE('',#483,0.009);
#19=CIRCLE('',#484,0.009);
#20=CIRCLE('',#486,0.0085);
#21=CIRCLE('',#487,0.0085);
#22=CIRCLE('',#488,0.009);
#23=CIRCLE('',#489,0.009);
#24=CIRCLE('',#491,0.0065);
#25=CIRCLE('',#493,0.0065);
#26=CIRCLE('',#510,0.005);
#27=ORIENTED_EDGE('',*,*,#151,.T.);
#28=ORIENTED_EDGE('',*,*,#152,.T.);
#29=ORIENTED_EDGE('',*,*,#153,.T.);
#30=ORIENTED_EDGE('',*,*,#154,.F.);
#31=ORIENTED_EDGE('',*,*,#155,.F.);
#32=ORIENTED_EDGE('',*,*,#156,.T.);
#33=ORIENTED_EDGE('',*,*,#157,.T.);
#34=ORIENTED_EDGE('',*,*,#158,.F.);
#35=ORIENTED_EDGE('',*,*,#159,.F.);
#36=ORIENTED_EDGE('',*,*,#160,.T.);
#37=ORIENTED_EDGE('',*,*,#161,.F.);
#38=ORIENTED_EDGE('',*,*,#162,.F.);
#39=ORIENTED_EDGE('',*,*,#163,.F.);
#40=ORIENTED_EDGE('',*,*,#162,.T.);
#41=ORIENTED_EDGE('',*,*,#164,.T.);
#42=ORIENTED_EDGE('',*,*,#165,.F.);
#43=ORIENTED_EDGE('',*,*,#166,.F.);
#44=ORIENTED_EDGE('',*,*,#165,.T.);
#45=ORIENTED_EDGE('',*,*,#167,.T.);
#46=ORIENTED_EDGE('',*,*,#168,.F.);
#47=ORIENTED_EDGE('',*,*,#169,.T.);
#48=ORIENTED_EDGE('',*,*,#170,.T.);
#49=ORIENTED_EDGE('',*,*,#171,.F.);
#50=ORIENTED_EDGE('',*,*,#172,.F.);
#51=ORIENTED_EDGE('',*,*,#173,.T.);
#52=ORIENTED_EDGE('',*,*,#174,.T.);
#53=ORIENTED_EDGE('',*,*,#175,.F.);
#54=ORIENTED_EDGE('',*,*,#176,.F.);
#55=ORIENTED_EDGE('',*,*,#156,.F.);
#56=ORIENTED_EDGE('',*,*,#177,.T.);
#57=ORIENTED_EDGE('',*,*,#172,.T.);
#58=ORIENTED_EDGE('',*,*,#178,.F.);
#59=ORIENTED_EDGE('',*,*,#179,.F.);
#60=ORIENTED_EDGE('',*,*,#180,.F.);
#61=ORIENTED_EDGE('',*,*,#181,.T.);
#62=ORIENTED_EDGE('',*,*,#182,.F.);
#63=ORIENTED_EDGE('',*,*,#183,.F.);
#64=ORIENTED_EDGE('',*,*,#153,.F.);
#65=ORIENTED_EDGE('',*,*,#184,.T.);
#66=ORIENTED_EDGE('',*,*,#175,.T.);
#67=ORIENTED_EDGE('',*,*,#185,.F.);
#68=ORIENTED_EDGE('',*,*,#186,.F.);
#69=ORIENTED_EDGE('',*,*,#187,.T.);
#70=ORIENTED_EDGE('',*,*,#188,.F.);
#71=ORIENTED_EDGE('',*,*,#189,.F.);
#72=ORIENTED_EDGE('',*,*,#190,.F.);
#73=ORIENTED_EDGE('',*,*,#191,.T.);
#74=ORIENTED_EDGE('',*,*,#192,.T.);
#75=ORIENTED_EDGE('',*,*,#193,.T.);
#76=ORIENTED_EDGE('',*,*,#194,.F.);
#77=ORIENTED_EDGE('',*,*,#195,.T.);
#78=ORIENTED_EDGE('',*,*,#186,.T.);
#79=ORIENTED_EDGE('',*,*,#196,.F.);
#80=ORIENTED_EDGE('',*,*,#194,.T.);
#81=ORIENTED_EDGE('',*,*,#197,.T.);
#82=ORIENTED_EDGE('',*,*,#198,.T.);
#83=ORIENTED_EDGE('',*,*,#199,.F.);
#84=ORIENTED_EDGE('',*,*,#159,.T.);
#85=ORIENTED_EDGE('',*,*,#200,.T.);
#86=ORIENTED_EDGE('',*,*,#169,.F.);
#87=ORIENTED_EDGE('',*,*,#201,.F.);
#88=ORIENTED_EDGE('',*,*,#168,.T.);
#89=ORIENTED_EDGE('',*,*,#202,.F.);
#90=ORIENTED_EDGE('',*,*,#160,.F.);
#91=ORIENTED_EDGE('',*,*,#201,.T.);
#92=ORIENTED_EDGE('',*,*,#167,.F.);
#93=ORIENTED_EDGE('',*,*,#164,.F.);
#94=ORIENTED_EDGE('',*,*,#161,.T.);
#95=ORIENTED_EDGE('',*,*,#202,.T.);
#96=ORIENTED_EDGE('',*,*,#170,.F.);
#97=ORIENTED_EDGE('',*,*,#200,.F.);
#98=ORIENTED_EDGE('',*,*,#158,.T.);
#99=ORIENTED_EDGE('',*,*,#203,.T.);
#100=ORIENTED_EDGE('',*,*,#171,.T.);
#101=ORIENTED_EDGE('',*,*,#203,.F.);
#102=ORIENTED_EDGE('',*,*,#157,.F.);
#103=ORIENTED_EDGE('',*,*,#178,.T.);
#104=ORIENTED_EDGE('',*,*,#204,.F.);
#105=ORIENTED_EDGE('',*,*,#198,.F.);
#106=ORIENTED_EDGE('',*,*,#205,.T.);
#107=ORIENTED_EDGE('',*,*,#188,.T.);
#108=ORIENTED_EDGE('',*,*,#205,.F.);
#109=ORIENTED_EDGE('',*,*,#197,.F.);
#110=ORIENTED_EDGE('',*,*,#196,.T.);
#111=ORIENTED_EDGE('',*,*,#189,.T.);
#112=ORIENTED_EDGE('',*,*,#204,.T.);
#113=ORIENTED_EDGE('',*,*,#187,.F.);
#114=ORIENTED_EDGE('',*,*,#195,.F.);
#115=ORIENTED_EDGE('',*,*,#199,.T.);
#116=ORIENTED_EDGE('',*,*,#191,.F.);
#117=ORIENTED_EDGE('',*,*,#206,.F.);
#118=ORIENTED_EDGE('',*,*,#180,.T.);
#119=ORIENTED_EDGE('',*,*,#207,.T.);
#120=ORIENTED_EDGE('',*,*,#190,.T.);
#121=ORIENTED_EDGE('',*,*,#208,.F.);
#122=ORIENTED_EDGE('',*,*,#181,.F.);
#123=ORIENTED_EDGE('',*,*,#206,.T.);
#124=ORIENTED_EDGE('',*,*,#193,.F.);
#125=ORIENTED_EDGE('',*,*,#209,.F.);
#126=ORIENTED_EDGE('',*,*,#182,.T.);
#127=ORIENTED_EDGE('',*,*,#208,.T.);
#128=ORIENTED_EDGE('',*,*,#192,.F.);
#129=ORIENTED_EDGE('',*,*,#207,.F.);
#130=ORIENTED_EDGE('',*,*,#183,.T.);
#131=ORIENTED_EDGE('',*,*,#209,.T.);
#132=ORIENTED_EDGE('',*,*,#174,.F.);
#133=ORIENTED_EDGE('',*,*,#210,.F.);
#134=ORIENTED_EDGE('',*,*,#154,.T.);
#135=ORIENTED_EDGE('',*,*,#185,.T.);
#136=ORIENTED_EDGE('',*,*,#173,.F.);
#137=ORIENTED_EDGE('',*,*,#177,.F.);
#138=ORIENTED_EDGE('',*,*,#155,.T.);
#139=ORIENTED_EDGE('',*,*,#210,.T.);
#140=ORIENTED_EDGE('',*,*,#166,.T.);
#141=ORIENTED_EDGE('',*,*,#211,.F.);
#142=ORIENTED_EDGE('',*,*,#151,.F.);
#143=ORIENTED_EDGE('',*,*,#163,.T.);
#144=ORIENTED_EDGE('',*,*,#176,.T.);
#145=ORIENTED_EDGE('',*,*,#184,.F.);
#146=ORIENTED_EDGE('',*,*,#152,.F.);
#147=ORIENTED_EDGE('',*,*,#211,.T.);
#148=ORIENTED_EDGE('',*,*,#212,.F.);
#149=ORIENTED_EDGE('',*,*,#179,.T.);
#150=ORIENTED_EDGE('',*,*,#212,.T.);
#151=EDGE_CURVE('',#213,#214,#255,.T.);
#152=EDGE_CURVE('',#214,#215,#256,.T.);
#153=EDGE_CURVE('',#215,#216,#257,.T.);
#154=EDGE_CURVE('',#217,#216,#258,.T.);
#155=EDGE_CURVE('',#218,#217,#259,.T.);
#156=EDGE_CURVE('',#218,#219,#260,.T.);
#157=EDGE_CURVE('',#219,#220,#261,.T.);
#158=EDGE_CURVE('',#221,#220,#262,.T.);
#159=EDGE_CURVE('',#222,#221,#263,.T.);
#160=EDGE_CURVE('',#222,#223,#264,.T.);
#161=EDGE_CURVE('',#224,#223,#265,.T.);
#162=EDGE_CURVE('',#213,#224,#266,.T.);
#163=EDGE_CURVE('',#213,#225,#267,.T.);
#164=EDGE_CURVE('',#224,#226,#268,.T.);
#165=EDGE_CURVE('',#225,#226,#269,.T.);
#166=EDGE_CURVE('',#225,#227,#270,.T.);
#167=EDGE_CURVE('',#226,#228,#271,.T.);
#168=EDGE_CURVE('',#229,#228,#272,.T.);
#169=EDGE_CURVE('',#229,#230,#273,.T.);
#170=EDGE_CURVE('',#230,#231,#274,.T.);
#171=EDGE_CURVE('',#232,#231,#275,.T.);
#172=EDGE_CURVE('',#233,#232,#276,.T.);
#173=EDGE_CURVE('',#233,#234,#277,.T.);
#174=EDGE_CURVE('',#234,#235,#278,.T.);
#175=EDGE_CURVE('',#236,#235,#279,.T.);
#176=EDGE_CURVE('',#227,#236,#280,.T.);
#177=EDGE_CURVE('',#218,#233,#281,.T.);
#178=EDGE_CURVE('',#219,#232,#282,.T.);
#179=EDGE_CURVE('',#237,#237,#17,.T.);
#180=EDGE_CURVE('',#238,#239,#18,.T.);
#181=EDGE_CURVE('',#238,#240,#283,.T.);
#182=EDGE_CURVE('',#241,#240,#19,.T.);
#183=EDGE_CURVE('',#239,#241,#284,.T.);
#184=EDGE_CURVE('',#215,#236,#285,.T.);
#185=EDGE_CURVE('',#216,#235,#286,.T.);
#186=EDGE_CURVE('',#242,#243,#20,.T.);
#187=EDGE_CURVE('',#242,#244,#287,.T.);
#188=EDGE_CURVE('',#245,#244,#21,.T.);
#189=EDGE_CURVE('',#243,#245,#288,.T.);
#190=EDGE_CURVE('',#246,#247,#289,.T.);
#191=EDGE_CURVE('',#246,#248,#22,.T.);
#192=EDGE_CURVE('',#248,#249,#290,.T.);
#193=EDGE_CURVE('',#249,#247,#23,.T.);
#194=EDGE_CURVE('',#250,#251,#24,.T.);
#195=EDGE_CURVE('',#250,#242,#291,.T.);
#196=EDGE_CURVE('',#251,#243,#292,.T.);
#197=EDGE_CURVE('',#251,#252,#293,.T.);
#198=EDGE_CURVE('',#252,#253,#25,.T.);
#199=EDGE_CURVE('',#250,#253,#294,.T.);
#200=EDGE_CURVE('',#221,#230,#295,.T.);
#201=EDGE_CURVE('',#222,#229,#296,.T.);
#202=EDGE_CURVE('',#223,#228,#297,.T.);
#203=EDGE_CURVE('',#220,#231,#298,.T.);
#204=EDGE_CURVE('',#253,#244,#299,.T.);
#205=EDGE_CURVE('',#252,#245,#300,.T.);
#206=EDGE_CURVE('',#238,#246,#301,.T.);
#207=EDGE_CURVE('',#239,#248,#302,.T.);
#208=EDGE_CURVE('',#240,#247,#303,.T.);
#209=EDGE_CURVE('',#241,#249,#304,.T.);
#210=EDGE_CURVE('',#217,#234,#305,.T.);
#211=EDGE_CURVE('',#214,#227,#306,.T.);
#212=EDGE_CURVE('',#254,#254,#26,.T.);
#213=VERTEX_POINT('',#639);
#214=VERTEX_POINT('',#640);
#215=VERTEX_POINT('',#642);
#216=VERTEX_POINT('',#644);
#217=VERTEX_POINT('',#646);
#218=VERTEX_POINT('',#648);
#219=VERTEX_POINT('',#650);
#220=VERTEX_POINT('',#652);
#221=VERTEX_POINT('',#654);
#222=VERTEX_POINT('',#656);
#223=VERTEX_POINT('',#658);
#224=VERTEX_POINT('',#660);
#225=VERTEX_POINT('',#664);
#226=VERTEX_POINT('',#666);
#227=VERTEX_POINT('',#670);
#228=VERTEX_POINT('',#672);
#229=VERTEX_POINT('',#674);
#230=VERTEX_POINT('',#676);
#231=VERTEX_POINT('',#678);
#232=VERTEX_POINT('',#680);
#233=VERTEX_POINT('',#682);
#234=VERTEX_POINT('',#684);
#235=VERTEX_POINT('',#686);
#236=VERTEX_POINT('',#688);
#237=VERTEX_POINT('',#695);
#238=VERTEX_POINT('',#697);
#239=VERTEX_POINT('',#698);
#240=VERTEX_POINT('',#700);
#241=VERTEX_POINT('',#702);
#242=VERTEX_POINT('',#708);
#243=VERTEX_POINT('',#709);
#244=VERTEX_POINT('',#711);
#245=VERTEX_POINT('',#713);
#246=VERTEX_POINT('',#716);
#247=VERTEX_POINT('',#717);
#248=VERTEX_POINT('',#719);
#249=VERTEX_POINT('',#721);
#250=VERTEX_POINT('',#725);
#251=VERTEX_POINT('',#726);
#252=VERTEX_POINT('',#731);
#253=VERTEX_POINT('',#733);
#254=VERTEX_POINT('',#764);
#255=LINE('',#638,#307);
#256=LINE('',#641,#308);
#257=LINE('',#643,#309);
#258=LINE('',#645,#310);
#259=LINE('',#647,#311);
#260=LINE('',#649,#312);
#261=LINE('',#651,#313);
#262=LINE('',#653,#314);
#263=LINE('',#655,#315);
#264=LINE('',#657,#316);
#265=LINE('',#659,#317);
#266=LINE('',#661,#318);
#267=LINE('',#663,#319);
#268=LINE('',#665,#320);
#269=LINE('',#667,#321);
#270=LINE('',#669,#322);
#271=LINE('',#671,#323);
#272=LINE('',#673,#324);
#273=LINE('',#675,#325);
#274=LINE('',#677,#326);
#275=LINE('',#679,#327);
#276=LINE('',#681,#328);
#277=LINE('',#683,#329);
#278=LINE('',#685,#330);
#279=LINE('',#687,#331);
#280=LINE('',#689,#332);
#281=LINE('',#691,#333);
#282=LINE('',#692,#334);
#283=LINE('',#699,#335);
#284=LINE('',#703,#336);
#285=LINE('',#704,#337);
#286=LINE('',#705,#338);
#287=LINE('',#710,#339);
#288=LINE('',#714,#340);
#289=LINE('',#715,#341);
#290=LINE('',#720,#342);
#291=LINE('',#727,#343);
#292=LINE('',#728,#344);
#293=LINE('',#730,#345);
#294=LINE('',#734,#346);
#295=LINE('',#735,#347);
#296=LINE('',#736,#348);
#297=LINE('',#738,#349);
#298=LINE('',#741,#350);
#299=LINE('',#744,#351);
#300=LINE('',#745,#352);
#301=LINE('',#749,#353);
#302=LINE('',#750,#354);
#303=LINE('',#752,#355);
#304=LINE('',#754,#356);
#305=LINE('',#757,#357);
#306=LINE('',#760,#358);
#307=VECTOR('',#516,1.);
#308=VECTOR('',#517,1.);
#309=VECTOR('',#518,1.);
#310=VECTOR('',#519,1.);
#311=VECTOR('',#520,1.);
#312=VECTOR('',#521,1.);
#313=VECTOR('',#522,1.);
#314=VECTOR('',#523,1.);
#315=VECTOR('',#524,1.);
#316=VECTOR('',#525,1.);
#317=VECTOR('',#526,1.);
#318=VECTOR('',#527,1.);
#319=VECTOR('',#530,1.);
#320=VECTOR('',#531,1.);
#321=VECTOR('',#532,1.);
#322=VECTOR('',#535,1.);
#323=VECTOR('',#536,1.);
#324=VECTOR('',#537,1.);
#325=VECTOR('',#538,1.);
#326=VECTOR('',#539,1.);
#327=VECTOR('',#540,1.);
#328=VECTOR('',#541,1.);
#329=VECTOR('',#542,1.);
#330=VECTOR('',#543,1.);
#331=VECTOR('',#544,1.);
#332=VECTOR('',#545,1.);
#333=VECTOR('',#548,1.);
#334=VECTOR('',#549,1.);
#335=VECTOR('',#556,1.);
#336=VECTOR('',#559,1.);
#337=VECTOR('',#560,1.);
#338=VECTOR('',#561,1.);
#339=VECTOR('',#566,1.);
#340=VECTOR('',#569,1.);
#341=VECTOR('',#570,1.);
#342=VECTOR('',#573,1.);
#343=VECTOR('',#580,1.);
#344=VECTOR('',#581,1.);
#345=VECTOR('',#584,1.);
#346=VECTOR('',#587,1.);
#347=VECTOR('',#588,1.);
#348=VECTOR('',#589,1.);
#349=VECTOR('',#592,1.);
#350=VECTOR('',#597,1.);
#351=VECTOR('',#602,1.);
#352=VECTOR('',#603,1.);
#353=VECTOR('',#610,1.);
#354=VECTOR('',#611,1.);
#355=VECTOR('',#614,1.);
#356=VECTOR('',#617,1.);
#357=VECTOR('',#622,1.);
#358=VECTOR('',#627,1.);
#359=EDGE_LOOP('',(#27,#28,#29,#30,#31,#32,#33,#34,#35,#36,#37,#38));
#360=EDGE_LOOP('',(#39,#40,#41,#42));
#361=EDGE_LOOP('',(#43,#44,#45,#46,#47,#48,#49,#50,#51,#52,#53,#54));
#362=EDGE_LOOP('',(#55,#56,#57,#58));
#363=EDGE_LOOP('',(#59));
#364=EDGE_LOOP('',(#60,#61,#62,#63));
#365=EDGE_LOOP('',(#64,#65,#66,#67));
#366=EDGE_LOOP('',(#68,#69,#70,#71));
#367=EDGE_LOOP('',(#72,#73,#74,#75));
#368=EDGE_LOOP('',(#76,#77,#78,#79));
#369=EDGE_LOOP('',(#80,#81,#82,#83));
#370=EDGE_LOOP('',(#84,#85,#86,#87));
#371=EDGE_LOOP('',(#88,#89,#90,#91));
#372=EDGE_LOOP('',(#92,#93,#94,#95));
#373=EDGE_LOOP('',(#96,#97,#98,#99));
#374=EDGE_LOOP('',(#100,#101,#102,#103));
#375=EDGE_LOOP('',(#104,#105,#106,#107));
#376=EDGE_LOOP('',(#108,#109,#110,#111));
#377=EDGE_LOOP('',(#112,#113,#114,#115));
#378=EDGE_LOOP('',(#116,#117,#118,#119));
#379=EDGE_LOOP('',(#120,#121,#122,#123));
#380=EDGE_LOOP('',(#124,#125,#126,#127));
#381=EDGE_LOOP('',(#128,#129,#130,#131));
#382=EDGE_LOOP('',(#132,#133,#134,#135));
#383=EDGE_LOOP('',(#136,#137,#138,#139));
#384=EDGE_LOOP('',(#140,#141,#142,#143));
#385=EDGE_LOOP('',(#144,#145,#146,#147));
#386=EDGE_LOOP('',(#148));
#387=EDGE_LOOP('',(#149));
#388=EDGE_LOOP('',(#150));
#389=FACE_BOUND('',#359,.T.);
#390=FACE_BOUND('',#360,.T.);
#391=FACE_BOUND('',#361,.T.);
#392=FACE_BOUND('',#362,.T.);
#393=FACE_BOUND('',#363,.T.);
#394=FACE_BOUND('',#364,.T.);
#395=FACE_BOUND('',#365,.T.);
#396=FACE_BOUND('',#366,.T.);
#397=FACE_BOUND('',#367,.T.);
#398=FACE_BOUND('',#368,.T.);
#399=FACE_BOUND('',#369,.T.);
#400=FACE_BOUND('',#370,.T.);
#401=FACE_BOUND('',#371,.T.);
#402=FACE_BOUND('',#372,.T.);
#403=FACE_BOUND('',#373,.T.);
#404=FACE_BOUND('',#374,.T.);
#405=FACE_BOUND('',#375,.T.);
#406=FACE_BOUND('',#376,.T.);
#407=FACE_BOUND('',#377,.T.);
#408=FACE_BOUND('',#378,.T.);
#409=FACE_BOUND('',#379,.T.);
#410=FACE_BOUND('',#380,.T.);
#411=FACE_BOUND('',#381,.T.);
#412=FACE_BOUND('',#382,.T.);
#413=FACE_BOUND('',#383,.T.);
#414=FACE_BOUND('',#384,.T.);
#415=FACE_BOUND('',#385,.T.);
#416=FACE_BOUND('',#386,.T.);
#417=FACE_BOUND('',#387,.T.);
#418=FACE_BOUND('',#388,.T.);
#419=PLANE('',#477);
#420=PLANE('',#478);
#421=PLANE('',#479);
#422=PLANE('',#480);
#423=PLANE('',#481);
#424=PLANE('',#485);
#425=PLANE('',#492);
#426=PLANE('',#494);
#427=PLANE('',#495);
#428=PLANE('',#496);
#429=PLANE('',#497);
#430=PLANE('',#499);
#431=PLANE('',#500);
#432=PLANE('',#502);
#433=PLANE('',#504);
#434=PLANE('',#505);
#435=PLANE('',#506);
#436=PLANE('',#507);
#437=PLANE('',#508);
#438=PLANE('',#511);
#439=ADVANCED_FACE('',(#389),#419,.T.);
#440=ADVANCED_FACE('',(#390),#420,.F.);
#441=ADVANCED_FACE('',(#391),#421,.F.);
#442=ADVANCED_FACE('',(#392),#422,.T.);
#443=ADVANCED_FACE('',(#393,#394,#395),#423,.T.);
#444=ADVANCED_FACE('',(#396,#397),#424,.T.);
#445=ADVANCED_FACE('',(#398),#15,.F.);
#446=ADVANCED_FACE('',(#399,#400),#425,.F.);
#447=ADVANCED_FACE('',(#401),#426,.F.);
#448=ADVANCED_FACE('',(#402),#427,.T.);
#449=ADVANCED_FACE('',(#403),#428,.T.);
#450=ADVANCED_FACE('',(#404),#429,.F.);
#451=ADVANCED_FACE('',(#405),#16,.F.);
#452=ADVANCED_FACE('',(#406),#430,.T.);
#453=ADVANCED_FACE('',(#407),#431,.F.);
#454=ADVANCED_FACE('',(#408),#12,.F.);
#455=ADVANCED_FACE('',(#409),#432,.F.);
#456=ADVANCED_FACE('',(#410),#13,.F.);
#457=ADVANCED_FACE('',(#411),#433,.T.);
#458=ADVANCED_FACE('',(#412),#434,.T.);
#459=ADVANCED_FACE('',(#413),#435,.T.);
#460=ADVANCED_FACE('',(#414),#436,.F.);
#461=ADVANCED_FACE('',(#415),#437,.F.);
#462=ADVANCED_FACE('',(#416,#417),#14,.F.);
#463=ADVANCED_FACE('',(#418),#438,.T.);
#464=CLOSED_SHELL('',(#439,#440,#441,#442,#443,#444,#445,#446,#447,#448,
#449,#450,#451,#452,#453,#454,#455,#456,#457,#458,#459,#460,#461,#462,#463));
#465=STYLED_ITEM('',(#466),#473);
#466=PRESENTATION_STYLE_ASSIGNMENT((#467));
#467=SURFACE_STYLE_USAGE(.BOTH.,#468);
#468=SURFACE_SIDE_STYLE('',(#469));
#469=SURFACE_STYLE_FILL_AREA(#470);
#470=FILL_AREA_STYLE('',(#471));
#471=FILL_AREA_STYLE_COLOUR('',#472);
#472=COLOUR_RGB('',0.615686274509804,0.811764705882353,0.929411764705882);
#473=MANIFOLD_SOLID_BREP('Part 1',#464);
#474=SHAPE_DEFINITION_REPRESENTATION(#772,#475);
#475=SHAPE_REPRESENTATION('Part 1',(#476),#767);
#476=AXIS2_PLACEMENT_3D('',#636,#512,#513);
#477=AXIS2_PLACEMENT_3D('',#637,#514,#515);
#478=AXIS2_PLACEMENT_3D('',#662,#528,#529);
#479=AXIS2_PLACEMENT_3D('',#668,#533,#534);
#480=AXIS2_PLACEMENT_3D('',#690,#546,#547);
#481=AXIS2_PLACEMENT_3D('',#693,#550,#551);
#482=AXIS2_PLACEMENT_3D('',#694,#552,#553);
#483=AXIS2_PLACEMENT_3D('',#696,#554,#555);
#484=AXIS2_PLACEMENT_3D('',#701,#557,#558);
#485=AXIS2_PLACEMENT_3D('',#706,#562,#563);
#486=AXIS2_PLACEMENT_3D('',#707,#564,#565);
#487=AXIS2_PLACEMENT_3D('',#712,#567,#568);
#488=AXIS2_PLACEMENT_3D('',#718,#571,#572);
#489=AXIS2_PLACEMENT_3D('',#722,#574,#575);
#490=AXIS2_PLACEMENT_3D('',#723,#576,#577);
#491=AXIS2_PLACEMENT_3D('',#724,#578,#579);
#492=AXIS2_PLACEMENT_3D('',#729,#582,#583);
#493=AXIS2_PLACEMENT_3D('',#732,#585,#586);
#494=AXIS2_PLACEMENT_3D('',#737,#590,#591);
#495=AXIS2_PLACEMENT_3D('',#739,#593,#594);
#496=AXIS2_PLACEMENT_3D('',#740,#595,#596);
#497=AXIS2_PLACEMENT_3D('',#742,#598,#599);
#498=AXIS2_PLACEMENT_3D('',#743,#600,#601);
#499=AXIS2_PLACEMENT_3D('',#746,#604,#605);
#500=AXIS2_PLACEMENT_3D('',#747,#606,#607);
#501=AXIS2_PLACEMENT_3D('',#748,#608,#609);
#502=AXIS2_PLACEMENT_3D('',#751,#612,#613);
#503=AXIS2_PLACEMENT_3D('',#753,#615,#616);
#504=AXIS2_PLACEMENT_3D('',#755,#618,#619);
#505=AXIS2_PLACEMENT_3D('',#756,#620,#621);
#506=AXIS2_PLACEMENT_3D('',#758,#623,#624);
#507=AXIS2_PLACEMENT_3D('',#759,#625,#626);
#508=AXIS2_PLACEMENT_3D('',#761,#628,#629);
#509=AXIS2_PLACEMENT_3D('',#762,#630,#631);
#510=AXIS2_PLACEMENT_3D('',#763,#632,#633);
#511=AXIS2_PLACEMENT_3D('',#765,#634,#635);
#512=DIRECTION('',(0.,0.,1.));
#513=DIRECTION('',(1.,0.,0.));
#514=DIRECTION('',(-1.,0.,0.));
#515=DIRECTION('',(0.,0.,1.));
#516=DIRECTION('',(0.,1.,0.));
#517=DIRECTION('',(0.,-0.500097243556191,0.865969252911153));
#518=DIRECTION('',(0.,1.,0.));
#519=DIRECTION('',(0.,0.500097243556191,0.865969252911153));
#520=DIRECTION('',(0.,-1.,0.));
#521=DIRECTION('',(0.,0.,-1.));
#522=DIRECTION('',(0.,-1.,-1.7347234759768E-16));
#523=DIRECTION('',(0.,0.,-1.));
#524=DIRECTION('',(0.,1.,0.));
#525=DIRECTION('',(0.,0.,-1.));
#526=DIRECTION('',(0.,1.,-1.7347234759768E-16));
#527=DIRECTION('',(0.,0.,-1.));
#528=DIRECTION('',(0.,1.,0.));
#529=DIRECTION('',(0.,0.,1.));
#530=DIRECTION('',(1.,0.,0.));
#531=DIRECTION('',(1.,0.,0.));
#532=DIRECTION('',(0.,0.,-1.));
#533=DIRECTION('',(-1.,0.,0.));
#534=DIRECTION('',(0.,0.,1.));
#535=DIRECTION('',(0.,1.,0.));
#536=DIRECTION('',(0.,1.,-1.7347234759768E-16));
#537=DIRECTION('',(0.,0.,-1.));
#538=DIRECTION('',(0.,1.,0.));
#539=DIRECTION('',(0.,0.,-1.));
#540=DIRECTION('',(0.,-1.,-1.7347234759768E-16));
#541=DIRECTION('',(0.,0.,-1.));
#542=DIRECTION('',(0.,-1.,0.));
#543=DIRECTION('',(0.,0.500097243556191,0.865969252911153));
#544=DIRECTION('',(0.,1.,0.));
#545=DIRECTION('',(0.,-0.500097243556191,0.865969252911153));
#546=DIRECTION('',(0.,1.,0.));
#547=DIRECTION('',(0.,0.,1.));
#548=DIRECTION('',(1.,0.,0.));
#549=DIRECTION('',(1.,0.,0.));
#550=DIRECTION('',(0.,0.,1.));
#551=DIRECTION('',(1.,0.,0.));
#552=DIRECTION('',(0.,0.,1.));
#553=DIRECTION('',(1.,0.,0.));
#554=DIRECTION('',(0.,0.,1.));
#555=DIRECTION('',(1.,0.,0.));
#556=DIRECTION('',(-0.999999608525622,-0.000884843829858036,0.));
#557=DIRECTION('',(0.,0.,1.));
#558=DIRECTION('',(1.,0.,0.));
#559=DIRECTION('',(-0.999999994852041,0.00010146880205837,0.));
#560=DIRECTION('',(1.,0.,0.));
#561=DIRECTION('',(1.,0.,0.));
#562=DIRECTION('',(0.,0.,1.));
#563=DIRECTION('',(1.,0.,0.));
#564=DIRECTION('',(0.,0.,1.));
#565=DIRECTION('',(1.,0.,0.));
#566=DIRECTION('',(1.,0.,0.));
#567=DIRECTION('',(0.,0.,1.));
#568=DIRECTION('',(1.,0.,0.));
#569=DIRECTION('',(1.,0.,0.));
#570=DIRECTION('',(-0.999999608525622,-0.000884843829858036,0.));
#571=DIRECTION('',(0.,0.,1.));
#572=DIRECTION('',(1.,0.,0.));
#573=DIRECTION('',(-0.999999994852041,0.00010146880205837,0.));
#574=DIRECTION('',(0.,0.,1.));
#575=DIRECTION('',(1.,0.,0.));
#576=DIRECTION('',(0.,0.,1.));
#577=DIRECTION('',(1.,0.,0.));
#578=DIRECTION('',(0.,0.,1.));
#579=DIRECTION('',(1.,0.,0.));
#580=DIRECTION('',(0.,0.371390676354103,0.92847669088526));
#581=DIRECTION('',(0.,-0.371390676354103,0.92847669088526));
#582=DIRECTION('',(0.,0.,1.));
#583=DIRECTION('',(1.,0.,0.));
#584=DIRECTION('',(1.,0.,0.));
#585=DIRECTION('',(0.,0.,1.));
#586=DIRECTION('',(1.,0.,0.));
#587=DIRECTION('',(1.,0.,0.));
#588=DIRECTION('',(1.,0.,0.));
#589=DIRECTION('',(1.,0.,0.));
#590=DIRECTION('',(0.,-1.,0.));
#591=DIRECTION('',(0.,0.,-1.));
#592=DIRECTION('',(1.,0.,0.));
#593=DIRECTION('',(0.,-1.7347234759768E-16,-1.));
#594=DIRECTION('',(0.,1.,-1.7347234759768E-16));
#595=DIRECTION('',(0.,-1.,0.));
#596=DIRECTION('',(0.,0.,-1.));
#597=DIRECTION('',(1.,0.,0.));
#598=DIRECTION('',(0.,-1.7347234759768E-16,1.));
#599=DIRECTION('',(0.,-1.,-1.7347234759768E-16));
#600=DIRECTION('',(0.,0.,1.));
#601=DIRECTION('',(1.,0.,0.));
#602=DIRECTION('',(0.,0.371390676354103,0.92847669088526));
#603=DIRECTION('',(0.,-0.371390676354103,0.92847669088526));
#604=DIRECTION('',(0.,0.92847669088526,0.371390676354103));
#605=DIRECTION('',(0.,-0.371390676354103,0.92847669088526));
#606=DIRECTION('',(0.,0.92847669088526,-0.371390676354103));
#607=DIRECTION('',(0.,0.371390676354103,0.92847669088526));
#608=DIRECTION('',(0.,0.,-1.));
#609=DIRECTION('',(-1.,0.,0.));
#610=DIRECTION('',(0.,0.,-1.));
#611=DIRECTION('',(0.,0.,-1.));
#612=DIRECTION('',(0.000884843829858036,-0.999999608525622,0.));
#613=DIRECTION('',(0.999999608525622,0.000884843829858036,0.));
#614=DIRECTION('',(0.,0.,-1.));
#615=DIRECTION('',(0.,0.,-1.));
#616=DIRECTION('',(-1.,0.,0.));
#617=DIRECTION('',(0.,0.,-1.));
#618=DIRECTION('',(-0.00010146880205837,-0.999999994852041,0.));
#619=DIRECTION('',(0.999999994852041,-0.00010146880205837,0.));
#620=DIRECTION('',(0.,0.865969252911153,-0.500097243556191));
#621=DIRECTION('',(0.,0.500097243556191,0.865969252911153));
#622=DIRECTION('',(1.,0.,0.));
#623=DIRECTION('',(0.,0.,1.));
#624=DIRECTION('',(1.,0.,0.));
#625=DIRECTION('',(0.,0.,-1.));
#626=DIRECTION('',(-1.,0.,0.));
#627=DIRECTION('',(1.,0.,0.));
#628=DIRECTION('',(0.,0.865969252911153,0.500097243556191));
#629=DIRECTION('',(0.,-0.500097243556191,0.865969252911153));
#630=DIRECTION('',(0.,0.,1.));
#631=DIRECTION('',(1.,0.,0.));
#632=DIRECTION('',(0.,0.,1.));
#633=DIRECTION('',(1.,0.,0.));
#634=DIRECTION('',(0.,0.,1.));
#635=DIRECTION('',(1.,0.,0.));
#636=CARTESIAN_POINT('',(0.,0.,0.));
#637=CARTESIAN_POINT('',(0.,0.0165,0.005));
#638=CARTESIAN_POINT('',(0.,0.002555,0.005));
#639=CARTESIAN_POINT('',(0.,0.,0.005));
#640=CARTESIAN_POINT('',(0.,0.00511,0.005));
#641=CARTESIAN_POINT('',(0.,0.003955,0.007));
#642=CARTESIAN_POINT('',(0.,0.0028,0.009));
#643=CARTESIAN_POINT('',(0.,0.0165,0.009));
#644=CARTESIAN_POINT('',(0.,0.0302,0.009));
#645=CARTESIAN_POINT('',(0.,0.029045,0.007));
#646=CARTESIAN_POINT('',(0.,0.02789,0.005));
#647=CARTESIAN_POINT('',(0.,0.030445,0.005));
#648=CARTESIAN_POINT('',(0.,0.033,0.005));
#649=CARTESIAN_POINT('',(-6.93889390390723E-18,0.033,0.005));
#650=CARTESIAN_POINT('',(0.,0.033,-0.0025));
#651=CARTESIAN_POINT('',(0.,0.0305,-0.0025));
#652=CARTESIAN_POINT('',(0.,0.028,-0.0025));
#653=CARTESIAN_POINT('',(0.,0.028,-0.00125));
#654=CARTESIAN_POINT('',(0.,0.028,0.));
#655=CARTESIAN_POINT('',(0.,0.0165,0.));
#656=CARTESIAN_POINT('',(0.,0.005,0.));
#657=CARTESIAN_POINT('',(0.,0.005,-0.00125));
#658=CARTESIAN_POINT('',(0.,0.005,-0.0025));
#659=CARTESIAN_POINT('',(0.,0.0025,-0.0025));
#660=CARTESIAN_POINT('',(0.,0.,-0.0025));
#661=CARTESIAN_POINT('',(0.,0.,0.005));
#662=CARTESIAN_POINT('',(0.04,0.,0.005));
#663=CARTESIAN_POINT('',(0.,0.,0.005));
#664=CARTESIAN_POINT('',(0.08,0.,0.005));
#665=CARTESIAN_POINT('',(0.,0.,-0.0025));
#666=CARTESIAN_POINT('',(0.08,0.,-0.0025));
#667=CARTESIAN_POINT('',(0.08,0.,0.005));
#668=CARTESIAN_POINT('',(0.08,0.0165,0.005));
#669=CARTESIAN_POINT('',(0.08,0.002555,0.005));
#670=CARTESIAN_POINT('',(0.08,0.00511,0.005));
#671=CARTESIAN_POINT('',(0.08,0.0025,-0.0025));
#672=CARTESIAN_POINT('',(0.08,0.005,-0.0025));
#673=CARTESIAN_POINT('',(0.08,0.005,-0.00125));
#674=CARTESIAN_POINT('',(0.08,0.005,0.));
#675=CARTESIAN_POINT('',(0.08,0.0165,0.));
#676=CARTESIAN_POINT('',(0.08,0.028,0.));
#677=CARTESIAN_POINT('',(0.08,0.028,-0.00125));
#678=CARTESIAN_POINT('',(0.08,0.028,-0.0025));
#679=CARTESIAN_POINT('',(0.08,0.0305,-0.0025));
#680=CARTESIAN_POINT('',(0.08,0.033,-0.0025));
#681=CARTESIAN_POINT('',(0.08,0.033,0.005));
#682=CARTESIAN_POINT('',(0.08,0.033,0.005));
#683=CARTESIAN_POINT('',(0.08,0.030445,0.005));
#684=CARTESIAN_POINT('',(0.08,0.02789,0.005));
#685=CARTESIAN_POINT('',(0.08,0.029045,0.007));
#686=CARTESIAN_POINT('',(0.08,0.0302,0.009));
#687=CARTESIAN_POINT('',(0.08,0.0165,0.009));
#688=CARTESIAN_POINT('',(0.08,0.0028,0.009));
#689=CARTESIAN_POINT('',(0.08,0.003955,0.007));
#690=CARTESIAN_POINT('',(0.04,0.033,0.005));
#691=CARTESIAN_POINT('',(0.,0.033,0.005));
#692=CARTESIAN_POINT('',(0.,0.033,-0.0025));
#693=CARTESIAN_POINT('',(0.04,0.0165,0.009));
#694=CARTESIAN_POINT('',(0.0058,0.0088,0.009));
#695=CARTESIAN_POINT('',(0.0108,0.0088,0.009));
#696=CARTESIAN_POINT('',(0.0635,0.0165,0.009));
#697=CARTESIAN_POINT('',(0.0626764545558282,0.00753775848900602,0.009));
#698=CARTESIAN_POINT('',(0.0632190784428063,0.0254956146581934,0.009));
#699=CARTESIAN_POINT('',(0.0413422090751484,0.00751888100613771,0.009));
#700=CARTESIAN_POINT('',(0.0200079635944687,0.0075000035232694,0.009));
#701=CARTESIAN_POINT('',(0.02,0.0165,0.009));
#702=CARTESIAN_POINT('',(0.0200009132192185,0.0254999999536684,0.009));
#703=CARTESIAN_POINT('',(0.0416099958310124,0.0254978073059309,0.009));
#704=CARTESIAN_POINT('',(0.,0.0028,0.009));
#705=CARTESIAN_POINT('',(0.,0.0302,0.009));
#706=CARTESIAN_POINT('',(0.04,0.0165,0.005));
#707=CARTESIAN_POINT('',(0.02,0.0165,0.005));
#708=CARTESIAN_POINT('',(0.02,0.025,0.005));
#709=CARTESIAN_POINT('',(0.02,0.008,0.005));
#710=CARTESIAN_POINT('',(0.02,0.025,0.005));
#711=CARTESIAN_POINT('',(0.0635,0.025,0.005));
#712=CARTESIAN_POINT('',(0.0635,0.0165,0.005));
#713=CARTESIAN_POINT('',(0.0635,0.008,0.005));
#714=CARTESIAN_POINT('',(0.02,0.008,0.005));
#715=CARTESIAN_POINT('',(0.0413422090751484,0.00751888100613771,0.005));
#716=CARTESIAN_POINT('',(0.0626764545558282,0.00753775848900602,0.005));
#717=CARTESIAN_POINT('',(0.0200079635944687,0.0075000035232694,0.005));
#718=CARTESIAN_POINT('',(0.0635,0.0165,0.005));
#719=CARTESIAN_POINT('',(0.0632190784428063,0.0254956146581934,0.005));
#720=CARTESIAN_POINT('',(0.0416099958310124,0.0254978073059309,0.005));
#721=CARTESIAN_POINT('',(0.0200009132192185,0.0254999999536684,0.005));
#722=CARTESIAN_POINT('',(0.02,0.0165,0.005));
#723=CARTESIAN_POINT('',(0.02,0.0165,0.));
#724=CARTESIAN_POINT('',(0.02,0.0165,0.));
#725=CARTESIAN_POINT('',(0.02,0.023,0.));
#726=CARTESIAN_POINT('',(0.02,0.01,0.));
#727=CARTESIAN_POINT('',(0.02,0.024,0.0025));
#728=CARTESIAN_POINT('',(0.02,0.009,0.0025));
#729=CARTESIAN_POINT('',(0.04,0.0165,0.));
#730=CARTESIAN_POINT('',(0.02,0.01,0.));
#731=CARTESIAN_POINT('',(0.0635,0.01,0.));
#732=CARTESIAN_POINT('',(0.0635,0.0165,0.));
#733=CARTESIAN_POINT('',(0.0635,0.023,0.));
#734=CARTESIAN_POINT('',(0.02,0.023,0.));
#735=CARTESIAN_POINT('',(0.,0.028,0.));
#736=CARTESIAN_POINT('',(0.,0.005,0.));
#737=CARTESIAN_POINT('',(0.,0.005,-0.00125));
#738=CARTESIAN_POINT('',(0.,0.005,-0.0025));
#739=CARTESIAN_POINT('',(0.,0.0025,-0.0025));
#740=CARTESIAN_POINT('',(0.,0.028,-0.00125));
#741=CARTESIAN_POINT('',(0.,0.028,-0.0025));
#742=CARTESIAN_POINT('',(0.,0.0305,-0.0025));
#743=CARTESIAN_POINT('',(0.0635,0.0165,0.));
#744=CARTESIAN_POINT('',(0.0635,0.024,0.0025));
#745=CARTESIAN_POINT('',(0.0635,0.009,0.0025));
#746=CARTESIAN_POINT('',(0.02,0.009,0.0025));
#747=CARTESIAN_POINT('',(0.02,0.024,0.0025));
#748=CARTESIAN_POINT('',(0.0635,0.0165,0.009));
#749=CARTESIAN_POINT('',(0.0626764545558282,0.00753775848900602,0.009));
#750=CARTESIAN_POINT('',(0.0632190784428063,0.0254956146581934,0.009));
#751=CARTESIAN_POINT('',(0.0413422090751484,0.00751888100613771,0.009));
#752=CARTESIAN_POINT('',(0.0200079635944687,0.0075000035232694,0.009));
#753=CARTESIAN_POINT('',(0.02,0.0165,0.009));
#754=CARTESIAN_POINT('',(0.0200009132192185,0.0254999999536684,0.009));
#755=CARTESIAN_POINT('',(0.0416099958310124,0.0254978073059309,0.009));
#756=CARTESIAN_POINT('',(0.,0.029045,0.007));
#757=CARTESIAN_POINT('',(0.,0.02789,0.005));
#758=CARTESIAN_POINT('',(0.,0.030445,0.005));
#759=CARTESIAN_POINT('',(0.,0.002555,0.005));
#760=CARTESIAN_POINT('',(0.,0.00511,0.005));
#761=CARTESIAN_POINT('',(0.,0.003955,0.007));
#762=CARTESIAN_POINT('',(0.0058,0.0088,0.0084));
#763=CARTESIAN_POINT('',(0.0058,0.0088,0.0084));
#764=CARTESIAN_POINT('',(0.0108,0.0088,0.0084));
#765=CARTESIAN_POINT('',(0.04,0.0165,0.0084));
#766=MECHANICAL_DESIGN_GEOMETRIC_PRESENTATION_REPRESENTATION('',(#465),
#767);
#767=(
GEOMETRIC_REPRESENTATION_CONTEXT(3)
GLOBAL_UNCERTAINTY_ASSIGNED_CONTEXT((#768))
GLOBAL_UNIT_ASSIGNED_CONTEXT((#771,#770,#769))
REPRESENTATION_CONTEXT('Part 1','TOP_LEVEL_ASSEMBLY_PART')
);
#768=UNCERTAINTY_MEASURE_WITH_UNIT(LENGTH_MEASURE(1.E-8),#771,
'DISTANCE_ACCURACY_VALUE','Maximum Tolerance applied to model');
#769=(
NAMED_UNIT(*)
SI_UNIT($,.STERADIAN.)
SOLID_ANGLE_UNIT()
);
#770=(
NAMED_UNIT(*)
PLANE_ANGLE_UNIT()
SI_UNIT($,.RADIAN.)
);
#771=(
LENGTH_UNIT()
NAMED_UNIT(*)
SI_UNIT($,.METRE.)
);
#772=PRODUCT_DEFINITION_SHAPE('','',#773);
#773=PRODUCT_DEFINITION('','',#775,#774);
#774=PRODUCT_DEFINITION_CONTEXT('',#781,'design');
#775=PRODUCT_DEFINITION_FORMATION_WITH_SPECIFIED_SOURCE('','',#777,
 .NOT_KNOWN.);
#776=PRODUCT_RELATED_PRODUCT_CATEGORY('','',(#777));
#777=PRODUCT('Part 1','Part 1','Part 1',(#779));
#778=PRODUCT_CATEGORY('','');
#779=PRODUCT_CONTEXT('',#781,'mechanical');
#780=APPLICATION_PROTOCOL_DEFINITION('international standard',
'ap242_managed_model_based_3d_engineering',2020,#781);
#781=APPLICATION_CONTEXT('managed model based 3d engineering');
ENDSEC;
END-ISO-10303-21;
