ISO-10303-21;
HEADER;
/* Generated by software containing ST-Developer
 * from STEP Tools, Inc. (www.steptools.com) 
 */
/* OPTION: using custom renumber hook */

FILE_DESCRIPTION(
/* description */ ('STEP AP242 Edition 2',
'CAx-IF Rec.Pracs.---Representation and Presentation of Product Manufa
cturing Information (PMI)---4.0---2014-10-13',
'CAx-IF Rec.Pracs.---3D Tessellated Geometry---0.4---2014-09-14','2;1',
'CAx-IF Rec.Pracs.---User Defined Attributes---1.5---2016-08-15'),
/* implementation_level */ '2;1');

FILE_NAME(
/* name */ 'TopCase - Part 1',
/* time_stamp */ '2026-09-13T13:24:48Z',
/* author */ (''),
/* organization */ (''),
/* preprocessor_version */ 'ST-DEVELOPER v20',
/* originating_system */ 'ONSHAPE BY PTC INC, 1.220',
/* authorisation */ '  ');

FILE_SCHEMA (('AP242_MANAGED_MODEL_BASED_3D_ENGINEERING_MIM_LF { 1 0 10303 442 3 1 4 }'));
ENDSEC;

DATA;
#10=SHAPE_REPRESENTATION_RELATIONSHIP('','',#1230,#11);
#11=ADVANCED_BREP_SHAPE_REPRESENTATION('',(#1228),#2026);
#12=SPHERICAL_SURFACE('',#1304,0.002);
#13=SPHERICAL_SURFACE('',#1315,0.002);
#14=SPHERICAL_SURFACE('',#1317,0.002);
#15=SPHERICAL_SURFACE('',#1327,0.002);
#16=SPHERICAL_SURFACE('',#1329,0.002);
#17=SPHERICAL_SURFACE('',#1335,0.002);
#18=CYLINDRICAL_SURFACE('',#1258,0.00125);
#19=CYLINDRICAL_SURFACE('',#1263,0.00125);
#20=CYLINDRICAL_SURFACE('',#1280,0.0011);
#21=CYLINDRICAL_SURFACE('',#1283,0.0033);
#22=CYLINDRICAL_SURFACE('',#1296,0.0019);
#23=CYLINDRICAL_SURFACE('',#1298,0.0019);
#24=CYLINDRICAL_SURFACE('',#1299,0.0035);
#25=CYLINDRICAL_SURFACE('',#1302,0.002);
#26=CYLINDRICAL_SURFACE('',#1307,0.002);
#27=CYLINDRICAL_SURFACE('',#1309,0.002);
#28=CYLINDRICAL_SURFACE('',#1311,0.002);
#29=CYLINDRICAL_SURFACE('',#1313,0.002);
#30=CYLINDRICAL_SURFACE('',#1319,0.002);
#31=CYLINDRICAL_SURFACE('',#1321,0.002);
#32=CYLINDRICAL_SURFACE('',#1323,0.002);
#33=CYLINDRICAL_SURFACE('',#1325,0.002);
#34=CYLINDRICAL_SURFACE('',#1331,0.002);
#35=CYLINDRICAL_SURFACE('',#1333,0.002);
#36=CYLINDRICAL_SURFACE('',#1337,0.002);
#37=CIRCLE('',#1233,0.0019);
#38=CIRCLE('',#1234,0.0019);
#39=CIRCLE('',#1236,0.0019);
#40=CIRCLE('',#1237,0.0019);
#41=CIRCLE('',#1247,0.002);
#42=CIRCLE('',#1248,0.002);
#43=CIRCLE('',#1249,0.002);
#44=CIRCLE('',#1250,0.002);
#45=CIRCLE('',#1251,0.002);
#46=CIRCLE('',#1252,0.002);
#47=CIRCLE('',#1259,0.00125);
#48=CIRCLE('',#1260,0.00125);
#49=CIRCLE('',#1264,0.00125);
#50=CIRCLE('',#1265,0.00125);
#51=CIRCLE('',#1267,0.0033);
#52=CIRCLE('',#1281,0.0011);
#53=CIRCLE('',#1282,0.0011);
#54=CIRCLE('',#1284,0.0033);
#55=CIRCLE('',#1291,0.0035);
#56=CIRCLE('',#1300,0.0035);
#57=CIRCLE('',#1303,0.002);
#58=CIRCLE('',#1305,0.002);
#59=CIRCLE('',#1306,0.002);
#60=CIRCLE('',#1308,0.002);
#61=CIRCLE('',#1310,0.002);
#62=CIRCLE('',#1312,0.002);
#63=CIRCLE('',#1314,0.002);
#64=CIRCLE('',#1316,0.002);
#65=CIRCLE('',#1318,0.002);
#66=CIRCLE('',#1320,0.002);
#67=CIRCLE('',#1322,0.002);
#68=CIRCLE('',#1324,0.002);
#69=CIRCLE('',#1326,0.002);
#70=CIRCLE('',#1328,0.002);
#71=CIRCLE('',#1330,0.002);
#72=CIRCLE('',#1332,0.002);
#73=CIRCLE('',#1334,0.002);
#74=CIRCLE('',#1336,0.002);
#75=ORIENTED_EDGE('',*,*,#409,.T.);
#76=ORIENTED_EDGE('',*,*,#410,.T.);
#77=ORIENTED_EDGE('',*,*,#411,.F.);
#78=ORIENTED_EDGE('',*,*,#412,.T.);
#79=ORIENTED_EDGE('',*,*,#413,.T.);
#80=ORIENTED_EDGE('',*,*,#414,.F.);
#81=ORIENTED_EDGE('',*,*,#415,.F.);
#82=ORIENTED_EDGE('',*,*,#416,.F.);
#83=ORIENTED_EDGE('',*,*,#417,.F.);
#84=ORIENTED_EDGE('',*,*,#418,.T.);
#85=ORIENTED_EDGE('',*,*,#419,.F.);
#86=ORIENTED_EDGE('',*,*,#420,.F.);
#87=ORIENTED_EDGE('',*,*,#421,.T.);
#88=ORIENTED_EDGE('',*,*,#422,.T.);
#89=ORIENTED_EDGE('',*,*,#423,.T.);
#90=ORIENTED_EDGE('',*,*,#424,.F.);
#91=ORIENTED_EDGE('',*,*,#425,.T.);
#92=ORIENTED_EDGE('',*,*,#426,.T.);
#93=ORIENTED_EDGE('',*,*,#427,.F.);
#94=ORIENTED_EDGE('',*,*,#428,.T.);
#95=ORIENTED_EDGE('',*,*,#429,.T.);
#96=ORIENTED_EDGE('',*,*,#430,.F.);
#97=ORIENTED_EDGE('',*,*,#431,.F.);
#98=ORIENTED_EDGE('',*,*,#432,.F.);
#99=ORIENTED_EDGE('',*,*,#433,.T.);
#100=ORIENTED_EDGE('',*,*,#434,.T.);
#101=ORIENTED_EDGE('',*,*,#435,.T.);
#102=ORIENTED_EDGE('',*,*,#436,.T.);
#103=ORIENTED_EDGE('',*,*,#437,.F.);
#104=ORIENTED_EDGE('',*,*,#438,.T.);
#105=ORIENTED_EDGE('',*,*,#422,.F.);
#106=ORIENTED_EDGE('',*,*,#439,.F.);
#107=ORIENTED_EDGE('',*,*,#440,.F.);
#108=ORIENTED_EDGE('',*,*,#441,.T.);
#109=ORIENTED_EDGE('',*,*,#442,.T.);
#110=ORIENTED_EDGE('',*,*,#443,.T.);
#111=ORIENTED_EDGE('',*,*,#444,.T.);
#112=ORIENTED_EDGE('',*,*,#445,.F.);
#113=ORIENTED_EDGE('',*,*,#446,.T.);
#114=ORIENTED_EDGE('',*,*,#447,.F.);
#115=ORIENTED_EDGE('',*,*,#448,.F.);
#116=ORIENTED_EDGE('',*,*,#449,.F.);
#117=ORIENTED_EDGE('',*,*,#450,.T.);
#118=ORIENTED_EDGE('',*,*,#451,.T.);
#119=ORIENTED_EDGE('',*,*,#452,.T.);
#120=ORIENTED_EDGE('',*,*,#453,.F.);
#121=ORIENTED_EDGE('',*,*,#454,.T.);
#122=ORIENTED_EDGE('',*,*,#455,.T.);
#123=ORIENTED_EDGE('',*,*,#456,.T.);
#124=ORIENTED_EDGE('',*,*,#457,.T.);
#125=ORIENTED_EDGE('',*,*,#458,.F.);
#126=ORIENTED_EDGE('',*,*,#459,.T.);
#127=ORIENTED_EDGE('',*,*,#430,.T.);
#128=ORIENTED_EDGE('',*,*,#460,.F.);
#129=ORIENTED_EDGE('',*,*,#461,.F.);
#130=ORIENTED_EDGE('',*,*,#462,.F.);
#131=ORIENTED_EDGE('',*,*,#458,.T.);
#132=ORIENTED_EDGE('',*,*,#463,.T.);
#133=ORIENTED_EDGE('',*,*,#464,.F.);
#134=ORIENTED_EDGE('',*,*,#433,.F.);
#135=ORIENTED_EDGE('',*,*,#465,.T.);
#136=ORIENTED_EDGE('',*,*,#464,.T.);
#137=ORIENTED_EDGE('',*,*,#466,.F.);
#138=ORIENTED_EDGE('',*,*,#467,.F.);
#139=ORIENTED_EDGE('',*,*,#468,.F.);
#140=ORIENTED_EDGE('',*,*,#420,.T.);
#141=ORIENTED_EDGE('',*,*,#469,.T.);
#142=ORIENTED_EDGE('',*,*,#441,.F.);
#143=ORIENTED_EDGE('',*,*,#470,.F.);
#144=ORIENTED_EDGE('',*,*,#452,.F.);
#145=ORIENTED_EDGE('',*,*,#471,.T.);
#146=ORIENTED_EDGE('',*,*,#472,.F.);
#147=ORIENTED_EDGE('',*,*,#473,.T.);
#148=ORIENTED_EDGE('',*,*,#474,.T.);
#149=ORIENTED_EDGE('',*,*,#475,.T.);
#150=ORIENTED_EDGE('',*,*,#476,.T.);
#151=ORIENTED_EDGE('',*,*,#477,.T.);
#152=ORIENTED_EDGE('',*,*,#478,.F.);
#153=ORIENTED_EDGE('',*,*,#479,.T.);
#154=ORIENTED_EDGE('',*,*,#411,.T.);
#155=ORIENTED_EDGE('',*,*,#480,.T.);
#156=ORIENTED_EDGE('',*,*,#456,.F.);
#157=ORIENTED_EDGE('',*,*,#481,.F.);
#158=ORIENTED_EDGE('',*,*,#439,.T.);
#159=ORIENTED_EDGE('',*,*,#421,.F.);
#160=ORIENTED_EDGE('',*,*,#468,.T.);
#161=ORIENTED_EDGE('',*,*,#482,.F.);
#162=ORIENTED_EDGE('',*,*,#483,.F.);
#163=ORIENTED_EDGE('',*,*,#448,.T.);
#164=ORIENTED_EDGE('',*,*,#484,.F.);
#165=ORIENTED_EDGE('',*,*,#485,.F.);
#166=ORIENTED_EDGE('',*,*,#486,.F.);
#167=ORIENTED_EDGE('',*,*,#487,.T.);
#168=ORIENTED_EDGE('',*,*,#488,.F.);
#169=ORIENTED_EDGE('',*,*,#443,.F.);
#170=ORIENTED_EDGE('',*,*,#489,.T.);
#171=ORIENTED_EDGE('',*,*,#490,.T.);
#172=ORIENTED_EDGE('',*,*,#491,.T.);
#173=ORIENTED_EDGE('',*,*,#492,.F.);
#174=ORIENTED_EDGE('',*,*,#493,.F.);
#175=ORIENTED_EDGE('',*,*,#445,.T.);
#176=ORIENTED_EDGE('',*,*,#474,.F.);
#177=ORIENTED_EDGE('',*,*,#494,.T.);
#178=ORIENTED_EDGE('',*,*,#495,.T.);
#179=ORIENTED_EDGE('',*,*,#496,.T.);
#180=ORIENTED_EDGE('',*,*,#476,.F.);
#181=ORIENTED_EDGE('',*,*,#497,.T.);
#182=ORIENTED_EDGE('',*,*,#498,.T.);
#183=ORIENTED_EDGE('',*,*,#499,.T.);
#184=ORIENTED_EDGE('',*,*,#478,.T.);
#185=ORIENTED_EDGE('',*,*,#500,.T.);
#186=ORIENTED_EDGE('',*,*,#501,.T.);
#187=ORIENTED_EDGE('',*,*,#502,.T.);
#188=ORIENTED_EDGE('',*,*,#503,.F.);
#189=ORIENTED_EDGE('',*,*,#504,.T.);
#190=ORIENTED_EDGE('',*,*,#505,.T.);
#191=ORIENTED_EDGE('',*,*,#490,.F.);
#192=ORIENTED_EDGE('',*,*,#506,.F.);
#193=ORIENTED_EDGE('',*,*,#492,.T.);
#194=ORIENTED_EDGE('',*,*,#472,.T.);
#195=ORIENTED_EDGE('',*,*,#507,.T.);
#196=ORIENTED_EDGE('',*,*,#508,.T.);
#197=ORIENTED_EDGE('',*,*,#509,.T.);
#198=ORIENTED_EDGE('',*,*,#510,.T.);
#199=ORIENTED_EDGE('',*,*,#511,.F.);
#200=ORIENTED_EDGE('',*,*,#512,.F.);
#201=ORIENTED_EDGE('',*,*,#513,.F.);
#202=ORIENTED_EDGE('',*,*,#514,.T.);
#203=ORIENTED_EDGE('',*,*,#436,.F.);
#204=ORIENTED_EDGE('',*,*,#515,.F.);
#205=ORIENTED_EDGE('',*,*,#516,.F.);
#206=ORIENTED_EDGE('',*,*,#517,.T.);
#207=ORIENTED_EDGE('',*,*,#518,.F.);
#208=ORIENTED_EDGE('',*,*,#519,.T.);
#209=ORIENTED_EDGE('',*,*,#460,.T.);
#210=ORIENTED_EDGE('',*,*,#429,.F.);
#211=ORIENTED_EDGE('',*,*,#520,.T.);
#212=ORIENTED_EDGE('',*,*,#521,.T.);
#213=ORIENTED_EDGE('',*,*,#446,.F.);
#214=ORIENTED_EDGE('',*,*,#493,.T.);
#215=ORIENTED_EDGE('',*,*,#506,.T.);
#216=ORIENTED_EDGE('',*,*,#489,.F.);
#217=ORIENTED_EDGE('',*,*,#442,.F.);
#218=ORIENTED_EDGE('',*,*,#469,.F.);
#219=ORIENTED_EDGE('',*,*,#419,.T.);
#220=ORIENTED_EDGE('',*,*,#503,.T.);
#221=ORIENTED_EDGE('',*,*,#510,.F.);
#222=ORIENTED_EDGE('',*,*,#522,.T.);
#223=ORIENTED_EDGE('',*,*,#523,.T.);
#224=ORIENTED_EDGE('',*,*,#524,.T.);
#225=ORIENTED_EDGE('',*,*,#525,.T.);
#226=ORIENTED_EDGE('',*,*,#526,.T.);
#227=ORIENTED_EDGE('',*,*,#527,.T.);
#228=ORIENTED_EDGE('',*,*,#488,.T.);
#229=ORIENTED_EDGE('',*,*,#505,.F.);
#230=ORIENTED_EDGE('',*,*,#491,.F.);
#231=ORIENTED_EDGE('',*,*,#444,.F.);
#232=ORIENTED_EDGE('',*,*,#504,.F.);
#233=ORIENTED_EDGE('',*,*,#511,.T.);
#234=ORIENTED_EDGE('',*,*,#520,.F.);
#235=ORIENTED_EDGE('',*,*,#428,.F.);
#236=ORIENTED_EDGE('',*,*,#528,.F.);
#237=ORIENTED_EDGE('',*,*,#485,.T.);
#238=ORIENTED_EDGE('',*,*,#529,.T.);
#239=ORIENTED_EDGE('',*,*,#521,.F.);
#240=ORIENTED_EDGE('',*,*,#529,.F.);
#241=ORIENTED_EDGE('',*,*,#484,.T.);
#242=ORIENTED_EDGE('',*,*,#447,.T.);
#243=ORIENTED_EDGE('',*,*,#519,.F.);
#244=ORIENTED_EDGE('',*,*,#530,.F.);
#245=ORIENTED_EDGE('',*,*,#531,.T.);
#246=ORIENTED_EDGE('',*,*,#461,.T.);
#247=ORIENTED_EDGE('',*,*,#518,.T.);
#248=ORIENTED_EDGE('',*,*,#532,.F.);
#249=ORIENTED_EDGE('',*,*,#533,.F.);
#250=ORIENTED_EDGE('',*,*,#530,.T.);
#251=ORIENTED_EDGE('',*,*,#517,.F.);
#252=ORIENTED_EDGE('',*,*,#534,.F.);
#253=ORIENTED_EDGE('',*,*,#535,.T.);
#254=ORIENTED_EDGE('',*,*,#532,.T.);
#255=ORIENTED_EDGE('',*,*,#516,.T.);
#256=ORIENTED_EDGE('',*,*,#536,.F.);
#257=ORIENTED_EDGE('',*,*,#537,.F.);
#258=ORIENTED_EDGE('',*,*,#534,.T.);
#259=ORIENTED_EDGE('',*,*,#515,.T.);
#260=ORIENTED_EDGE('',*,*,#435,.F.);
#261=ORIENTED_EDGE('',*,*,#538,.F.);
#262=ORIENTED_EDGE('',*,*,#536,.T.);
#263=ORIENTED_EDGE('',*,*,#463,.F.);
#264=ORIENTED_EDGE('',*,*,#531,.F.);
#265=ORIENTED_EDGE('',*,*,#533,.T.);
#266=ORIENTED_EDGE('',*,*,#535,.F.);
#267=ORIENTED_EDGE('',*,*,#537,.T.);
#268=ORIENTED_EDGE('',*,*,#538,.T.);
#269=ORIENTED_EDGE('',*,*,#434,.F.);
#270=ORIENTED_EDGE('',*,*,#466,.T.);
#271=ORIENTED_EDGE('',*,*,#513,.T.);
#272=ORIENTED_EDGE('',*,*,#418,.F.);
#273=ORIENTED_EDGE('',*,*,#539,.F.);
#274=ORIENTED_EDGE('',*,*,#540,.T.);
#275=ORIENTED_EDGE('',*,*,#514,.F.);
#276=ORIENTED_EDGE('',*,*,#540,.F.);
#277=ORIENTED_EDGE('',*,*,#541,.T.);
#278=ORIENTED_EDGE('',*,*,#437,.T.);
#279=ORIENTED_EDGE('',*,*,#539,.T.);
#280=ORIENTED_EDGE('',*,*,#417,.T.);
#281=ORIENTED_EDGE('',*,*,#438,.F.);
#282=ORIENTED_EDGE('',*,*,#541,.F.);
#283=ORIENTED_EDGE('',*,*,#542,.T.);
#284=ORIENTED_EDGE('',*,*,#543,.T.);
#285=ORIENTED_EDGE('',*,*,#544,.F.);
#286=ORIENTED_EDGE('',*,*,#512,.T.);
#287=ORIENTED_EDGE('',*,*,#542,.F.);
#288=ORIENTED_EDGE('',*,*,#544,.T.);
#289=ORIENTED_EDGE('',*,*,#543,.F.);
#290=ORIENTED_EDGE('',*,*,#440,.T.);
#291=ORIENTED_EDGE('',*,*,#545,.T.);
#292=ORIENTED_EDGE('',*,*,#546,.T.);
#293=ORIENTED_EDGE('',*,*,#470,.T.);
#294=ORIENTED_EDGE('',*,*,#467,.T.);
#295=ORIENTED_EDGE('',*,*,#546,.F.);
#296=ORIENTED_EDGE('',*,*,#547,.T.);
#297=ORIENTED_EDGE('',*,*,#482,.T.);
#298=ORIENTED_EDGE('',*,*,#449,.T.);
#299=ORIENTED_EDGE('',*,*,#483,.T.);
#300=ORIENTED_EDGE('',*,*,#547,.F.);
#301=ORIENTED_EDGE('',*,*,#545,.F.);
#302=ORIENTED_EDGE('',*,*,#548,.F.);
#303=ORIENTED_EDGE('',*,*,#432,.T.);
#304=ORIENTED_EDGE('',*,*,#549,.T.);
#305=ORIENTED_EDGE('',*,*,#454,.F.);
#306=ORIENTED_EDGE('',*,*,#550,.F.);
#307=ORIENTED_EDGE('',*,*,#551,.T.);
#308=ORIENTED_EDGE('',*,*,#427,.T.);
#309=ORIENTED_EDGE('',*,*,#459,.F.);
#310=ORIENTED_EDGE('',*,*,#462,.T.);
#311=ORIENTED_EDGE('',*,*,#465,.F.);
#312=ORIENTED_EDGE('',*,*,#431,.T.);
#313=ORIENTED_EDGE('',*,*,#481,.T.);
#314=ORIENTED_EDGE('',*,*,#455,.F.);
#315=ORIENTED_EDGE('',*,*,#549,.F.);
#316=ORIENTED_EDGE('',*,*,#528,.T.);
#317=ORIENTED_EDGE('',*,*,#551,.F.);
#318=ORIENTED_EDGE('',*,*,#552,.T.);
#319=ORIENTED_EDGE('',*,*,#486,.T.);
#320=ORIENTED_EDGE('',*,*,#453,.T.);
#321=ORIENTED_EDGE('',*,*,#487,.F.);
#322=ORIENTED_EDGE('',*,*,#552,.F.);
#323=ORIENTED_EDGE('',*,*,#550,.T.);
#324=ORIENTED_EDGE('',*,*,#413,.F.);
#325=ORIENTED_EDGE('',*,*,#553,.F.);
#326=ORIENTED_EDGE('',*,*,#424,.T.);
#327=ORIENTED_EDGE('',*,*,#554,.T.);
#328=ORIENTED_EDGE('',*,*,#416,.T.);
#329=ORIENTED_EDGE('',*,*,#555,.F.);
#330=ORIENTED_EDGE('',*,*,#425,.F.);
#331=ORIENTED_EDGE('',*,*,#553,.T.);
#332=ORIENTED_EDGE('',*,*,#415,.T.);
#333=ORIENTED_EDGE('',*,*,#556,.F.);
#334=ORIENTED_EDGE('',*,*,#426,.F.);
#335=ORIENTED_EDGE('',*,*,#555,.T.);
#336=ORIENTED_EDGE('',*,*,#414,.T.);
#337=ORIENTED_EDGE('',*,*,#554,.F.);
#338=ORIENTED_EDGE('',*,*,#423,.F.);
#339=ORIENTED_EDGE('',*,*,#556,.T.);
#340=ORIENTED_EDGE('',*,*,#557,.F.);
#341=ORIENTED_EDGE('',*,*,#548,.T.);
#342=ORIENTED_EDGE('',*,*,#557,.T.);
#343=ORIENTED_EDGE('',*,*,#558,.F.);
#344=ORIENTED_EDGE('',*,*,#500,.F.);
#345=ORIENTED_EDGE('',*,*,#477,.F.);
#346=ORIENTED_EDGE('',*,*,#499,.F.);
#347=ORIENTED_EDGE('',*,*,#559,.F.);
#348=ORIENTED_EDGE('',*,*,#558,.T.);
#349=ORIENTED_EDGE('',*,*,#560,.F.);
#350=ORIENTED_EDGE('',*,*,#475,.F.);
#351=ORIENTED_EDGE('',*,*,#496,.F.);
#352=ORIENTED_EDGE('',*,*,#561,.F.);
#353=ORIENTED_EDGE('',*,*,#497,.F.);
#354=ORIENTED_EDGE('',*,*,#560,.T.);
#355=ORIENTED_EDGE('',*,*,#498,.F.);
#356=ORIENTED_EDGE('',*,*,#562,.F.);
#357=ORIENTED_EDGE('',*,*,#526,.F.);
#358=ORIENTED_EDGE('',*,*,#559,.T.);
#359=ORIENTED_EDGE('',*,*,#525,.F.);
#360=ORIENTED_EDGE('',*,*,#563,.F.);
#361=ORIENTED_EDGE('',*,*,#501,.F.);
#362=ORIENTED_EDGE('',*,*,#479,.F.);
#363=ORIENTED_EDGE('',*,*,#502,.F.);
#364=ORIENTED_EDGE('',*,*,#564,.F.);
#365=ORIENTED_EDGE('',*,*,#412,.F.);
#366=ORIENTED_EDGE('',*,*,#562,.T.);
#367=ORIENTED_EDGE('',*,*,#561,.T.);
#368=ORIENTED_EDGE('',*,*,#565,.F.);
#369=ORIENTED_EDGE('',*,*,#564,.T.);
#370=ORIENTED_EDGE('',*,*,#563,.T.);
#371=ORIENTED_EDGE('',*,*,#566,.F.);
#372=ORIENTED_EDGE('',*,*,#473,.F.);
#373=ORIENTED_EDGE('',*,*,#509,.F.);
#374=ORIENTED_EDGE('',*,*,#567,.F.);
#375=ORIENTED_EDGE('',*,*,#494,.F.);
#376=ORIENTED_EDGE('',*,*,#565,.T.);
#377=ORIENTED_EDGE('',*,*,#495,.F.);
#378=ORIENTED_EDGE('',*,*,#568,.F.);
#379=ORIENTED_EDGE('',*,*,#527,.F.);
#380=ORIENTED_EDGE('',*,*,#566,.T.);
#381=ORIENTED_EDGE('',*,*,#524,.F.);
#382=ORIENTED_EDGE('',*,*,#569,.F.);
#383=ORIENTED_EDGE('',*,*,#409,.F.);
#384=ORIENTED_EDGE('',*,*,#480,.F.);
#385=ORIENTED_EDGE('',*,*,#410,.F.);
#386=ORIENTED_EDGE('',*,*,#570,.F.);
#387=ORIENTED_EDGE('',*,*,#457,.F.);
#388=ORIENTED_EDGE('',*,*,#568,.T.);
#389=ORIENTED_EDGE('',*,*,#567,.T.);
#390=ORIENTED_EDGE('',*,*,#571,.F.);
#391=ORIENTED_EDGE('',*,*,#570,.T.);
#392=ORIENTED_EDGE('',*,*,#569,.T.);
#393=ORIENTED_EDGE('',*,*,#572,.F.);
#394=ORIENTED_EDGE('',*,*,#571,.T.);
#395=ORIENTED_EDGE('',*,*,#508,.F.);
#396=ORIENTED_EDGE('',*,*,#573,.F.);
#397=ORIENTED_EDGE('',*,*,#522,.F.);
#398=ORIENTED_EDGE('',*,*,#572,.T.);
#399=ORIENTED_EDGE('',*,*,#523,.F.);
#400=ORIENTED_EDGE('',*,*,#574,.F.);
#401=ORIENTED_EDGE('',*,*,#450,.F.);
#402=ORIENTED_EDGE('',*,*,#574,.T.);
#403=ORIENTED_EDGE('',*,*,#573,.T.);
#404=ORIENTED_EDGE('',*,*,#575,.F.);
#405=ORIENTED_EDGE('',*,*,#471,.F.);
#406=ORIENTED_EDGE('',*,*,#451,.F.);
#407=ORIENTED_EDGE('',*,*,#575,.T.);
#408=ORIENTED_EDGE('',*,*,#507,.F.);
#409=EDGE_CURVE('',#576,#577,#684,.T.);
#410=EDGE_CURVE('',#577,#578,#685,.F.);
#411=EDGE_CURVE('',#579,#578,#686,.T.);
#412=EDGE_CURVE('',#579,#576,#687,.T.);
#413=EDGE_CURVE('',#580,#581,#688,.T.);
#414=EDGE_CURVE('',#582,#581,#37,.T.);
#415=EDGE_CURVE('',#583,#582,#689,.T.);
#416=EDGE_CURVE('',#580,#583,#38,.T.);
#417=EDGE_CURVE('',#584,#585,#690,.T.);
#418=EDGE_CURVE('',#584,#586,#691,.T.);
#419=EDGE_CURVE('',#587,#586,#692,.T.);
#420=EDGE_CURVE('',#588,#587,#693,.T.);
#421=EDGE_CURVE('',#588,#589,#694,.T.);
#422=EDGE_CURVE('',#589,#585,#695,.T.);
#423=EDGE_CURVE('',#590,#591,#39,.T.);
#424=EDGE_CURVE('',#592,#591,#696,.T.);
#425=EDGE_CURVE('',#592,#593,#40,.T.);
#426=EDGE_CURVE('',#593,#590,#697,.T.);
#427=EDGE_CURVE('',#594,#595,#698,.T.);
#428=EDGE_CURVE('',#594,#596,#699,.T.);
#429=EDGE_CURVE('',#596,#597,#700,.T.);
#430=EDGE_CURVE('',#595,#597,#701,.T.);
#431=EDGE_CURVE('',#598,#599,#702,.T.);
#432=EDGE_CURVE('',#600,#598,#703,.T.);
#433=EDGE_CURVE('',#600,#601,#704,.T.);
#434=EDGE_CURVE('',#601,#602,#705,.T.);
#435=EDGE_CURVE('',#602,#603,#706,.T.);
#436=EDGE_CURVE('',#603,#604,#707,.T.);
#437=EDGE_CURVE('',#605,#604,#708,.T.);
#438=EDGE_CURVE('',#605,#585,#709,.T.);
#439=EDGE_CURVE('',#599,#589,#710,.T.);
#440=EDGE_CURVE('',#606,#607,#711,.T.);
#441=EDGE_CURVE('',#606,#608,#712,.T.);
#442=EDGE_CURVE('',#608,#609,#713,.T.);
#443=EDGE_CURVE('',#609,#610,#714,.T.);
#444=EDGE_CURVE('',#610,#611,#715,.T.);
#445=EDGE_CURVE('',#612,#611,#716,.T.);
#446=EDGE_CURVE('',#612,#613,#717,.T.);
#447=EDGE_CURVE('',#614,#613,#718,.T.);
#448=EDGE_CURVE('',#615,#614,#719,.T.);
#449=EDGE_CURVE('',#607,#615,#720,.T.);
#450=EDGE_CURVE('',#616,#617,#721,.F.);
#451=EDGE_CURVE('',#617,#618,#722,.F.);
#452=EDGE_CURVE('',#618,#619,#723,.T.);
#453=EDGE_CURVE('',#620,#619,#724,.T.);
#454=EDGE_CURVE('',#620,#621,#725,.T.);
#455=EDGE_CURVE('',#621,#622,#726,.T.);
#456=EDGE_CURVE('',#622,#623,#727,.T.);
#457=EDGE_CURVE('',#623,#616,#728,.T.);
#458=EDGE_CURVE('',#624,#625,#729,.T.);
#459=EDGE_CURVE('',#624,#595,#730,.T.);
#460=EDGE_CURVE('',#626,#597,#731,.T.);
#461=EDGE_CURVE('',#625,#626,#732,.T.);
#462=EDGE_CURVE('',#624,#627,#733,.T.);
#463=EDGE_CURVE('',#625,#628,#734,.T.);
#464=EDGE_CURVE('',#627,#628,#735,.T.);
#465=EDGE_CURVE('',#600,#627,#736,.T.);
#466=EDGE_CURVE('',#601,#628,#737,.T.);
#467=EDGE_CURVE('',#629,#630,#738,.T.);
#468=EDGE_CURVE('',#588,#629,#739,.T.);
#469=EDGE_CURVE('',#587,#608,#740,.T.);
#470=EDGE_CURVE('',#630,#606,#741,.T.);
#471=EDGE_CURVE('',#618,#631,#41,.T.);
#472=EDGE_CURVE('',#632,#631,#742,.T.);
#473=EDGE_CURVE('',#632,#633,#42,.T.);
#474=EDGE_CURVE('',#633,#634,#743,.T.);
#475=EDGE_CURVE('',#634,#635,#43,.T.);
#476=EDGE_CURVE('',#635,#636,#744,.T.);
#477=EDGE_CURVE('',#636,#637,#44,.T.);
#478=EDGE_CURVE('',#638,#637,#745,.T.);
#479=EDGE_CURVE('',#638,#579,#45,.T.);
#480=EDGE_CURVE('',#578,#623,#46,.T.);
#481=EDGE_CURVE('',#599,#622,#746,.T.);
#482=EDGE_CURVE('',#639,#629,#747,.T.);
#483=EDGE_CURVE('',#615,#639,#748,.T.);
#484=EDGE_CURVE('',#640,#614,#749,.T.);
#485=EDGE_CURVE('',#641,#640,#750,.T.);
#486=EDGE_CURVE('',#642,#641,#751,.T.);
#487=EDGE_CURVE('',#642,#619,#752,.T.);
#488=EDGE_CURVE('',#610,#643,#753,.T.);
#489=EDGE_CURVE('',#609,#644,#754,.T.);
#490=EDGE_CURVE('',#644,#643,#755,.T.);
#491=EDGE_CURVE('',#611,#645,#756,.T.);
#492=EDGE_CURVE('',#646,#645,#757,.T.);
#493=EDGE_CURVE('',#612,#646,#758,.T.);
#494=EDGE_CURVE('',#633,#647,#759,.T.);
#495=EDGE_CURVE('',#647,#648,#760,.T.);
#496=EDGE_CURVE('',#648,#634,#761,.F.);
#497=EDGE_CURVE('',#635,#649,#762,.T.);
#498=EDGE_CURVE('',#649,#650,#763,.T.);
#499=EDGE_CURVE('',#650,#636,#764,.F.);
#500=EDGE_CURVE('',#637,#651,#765,.T.);
#501=EDGE_CURVE('',#651,#652,#766,.F.);
#502=EDGE_CURVE('',#652,#638,#767,.F.);
#503=EDGE_CURVE('',#653,#653,#47,.T.);
#504=EDGE_CURVE('',#654,#654,#48,.T.);
#505=EDGE_CURVE('',#645,#643,#768,.T.);
#506=EDGE_CURVE('',#646,#644,#769,.T.);
#507=EDGE_CURVE('',#631,#655,#770,.T.);
#508=EDGE_CURVE('',#655,#656,#771,.F.);
#509=EDGE_CURVE('',#656,#632,#772,.F.);
#510=EDGE_CURVE('',#657,#657,#49,.T.);
#511=EDGE_CURVE('',#658,#658,#50,.T.);
#512=EDGE_CURVE('',#659,#659,#51,.T.);
#513=EDGE_CURVE('',#660,#586,#773,.T.);
#514=EDGE_CURVE('',#660,#604,#774,.T.);
#515=EDGE_CURVE('',#661,#603,#775,.T.);
#516=EDGE_CURVE('',#662,#661,#776,.T.);
#517=EDGE_CURVE('',#662,#663,#777,.T.);
#518=EDGE_CURVE('',#664,#663,#778,.T.);
#519=EDGE_CURVE('',#664,#626,#779,.T.);
#520=EDGE_CURVE('',#596,#665,#780,.T.);
#521=EDGE_CURVE('',#665,#613,#781,.T.);
#522=EDGE_CURVE('',#666,#667,#782,.T.);
#523=EDGE_CURVE('',#667,#668,#783,.T.);
#524=EDGE_CURVE('',#668,#669,#784,.F.);
#525=EDGE_CURVE('',#669,#670,#785,.T.);
#526=EDGE_CURVE('',#670,#671,#786,.F.);
#527=EDGE_CURVE('',#671,#666,#787,.F.);
#528=EDGE_CURVE('',#641,#594,#788,.T.);
#529=EDGE_CURVE('',#640,#665,#789,.T.);
#530=EDGE_CURVE('',#672,#664,#790,.T.);
#531=EDGE_CURVE('',#672,#625,#791,.T.);
#532=EDGE_CURVE('',#673,#663,#792,.T.);
#533=EDGE_CURVE('',#672,#673,#793,.T.);
#534=EDGE_CURVE('',#674,#662,#794,.T.);
#535=EDGE_CURVE('',#674,#673,#795,.T.);
#536=EDGE_CURVE('',#675,#661,#796,.T.);
#537=EDGE_CURVE('',#674,#675,#797,.T.);
#538=EDGE_CURVE('',#675,#602,#798,.T.);
#539=EDGE_CURVE('',#676,#584,#799,.T.);
#540=EDGE_CURVE('',#676,#660,#800,.T.);
#541=EDGE_CURVE('',#676,#605,#801,.T.);
#542=EDGE_CURVE('',#677,#677,#52,.T.);
#543=EDGE_CURVE('',#678,#678,#53,.F.);
#544=EDGE_CURVE('',#679,#679,#54,.T.);
#545=EDGE_CURVE('',#607,#680,#802,.T.);
#546=EDGE_CURVE('',#680,#630,#803,.T.);
#547=EDGE_CURVE('',#680,#639,#804,.T.);
#548=EDGE_CURVE('',#681,#681,#55,.T.);
#549=EDGE_CURVE('',#598,#621,#805,.T.);
#550=EDGE_CURVE('',#682,#620,#806,.T.);
#551=EDGE_CURVE('',#682,#594,#807,.T.);
#552=EDGE_CURVE('',#682,#642,#808,.T.);
#553=EDGE_CURVE('',#592,#580,#809,.T.);
#554=EDGE_CURVE('',#591,#581,#810,.T.);
#555=EDGE_CURVE('',#593,#583,#811,.T.);
#556=EDGE_CURVE('',#590,#582,#812,.T.);
#557=EDGE_CURVE('',#683,#683,#56,.T.);
#558=EDGE_CURVE('',#651,#650,#57,.T.);
#559=EDGE_CURVE('',#651,#670,#58,.F.);
#560=EDGE_CURVE('',#670,#650,#59,.F.);
#561=EDGE_CURVE('',#649,#648,#60,.T.);
#562=EDGE_CURVE('',#671,#649,#61,.T.);
#563=EDGE_CURVE('',#652,#669,#62,.T.);
#564=EDGE_CURVE('',#576,#652,#63,.T.);
#565=EDGE_CURVE('',#671,#648,#64,.F.);
#566=EDGE_CURVE('',#576,#669,#65,.F.);
#567=EDGE_CURVE('',#647,#656,#66,.T.);
#568=EDGE_CURVE('',#666,#647,#67,.T.);
#569=EDGE_CURVE('',#577,#668,#68,.T.);
#570=EDGE_CURVE('',#616,#577,#69,.T.);
#571=EDGE_CURVE('',#666,#656,#70,.F.);
#572=EDGE_CURVE('',#616,#668,#71,.F.);
#573=EDGE_CURVE('',#667,#655,#72,.T.);
#574=EDGE_CURVE('',#617,#667,#73,.T.);
#575=EDGE_CURVE('',#617,#655,#74,.F.);
#576=VERTEX_POINT('',#1684);
#577=VERTEX_POINT('',#1685);
#578=VERTEX_POINT('',#1687);
#579=VERTEX_POINT('',#1689);
#580=VERTEX_POINT('',#1692);
#581=VERTEX_POINT('',#1693);
#582=VERTEX_POINT('',#1695);
#583=VERTEX_POINT('',#1697);
#584=VERTEX_POINT('',#1701);
#585=VERTEX_POINT('',#1702);
#586=VERTEX_POINT('',#1704);
#587=VERTEX_POINT('',#1706);
#588=VERTEX_POINT('',#1708);
#589=VERTEX_POINT('',#1710);
#590=VERTEX_POINT('',#1713);
#591=VERTEX_POINT('',#1714);
#592=VERTEX_POINT('',#1716);
#593=VERTEX_POINT('',#1718);
#594=VERTEX_POINT('',#1722);
#595=VERTEX_POINT('',#1723);
#596=VERTEX_POINT('',#1725);
#597=VERTEX_POINT('',#1727);
#598=VERTEX_POINT('',#1731);
#599=VERTEX_POINT('',#1732);
#600=VERTEX_POINT('',#1734);
#601=VERTEX_POINT('',#1736);
#602=VERTEX_POINT('',#1738);
#603=VERTEX_POINT('',#1740);
#604=VERTEX_POINT('',#1742);
#605=VERTEX_POINT('',#1744);
#606=VERTEX_POINT('',#1749);
#607=VERTEX_POINT('',#1750);
#608=VERTEX_POINT('',#1752);
#609=VERTEX_POINT('',#1754);
#610=VERTEX_POINT('',#1756);
#611=VERTEX_POINT('',#1758);
#612=VERTEX_POINT('',#1760);
#613=VERTEX_POINT('',#1762);
#614=VERTEX_POINT('',#1764);
#615=VERTEX_POINT('',#1766);
#616=VERTEX_POINT('',#1770);
#617=VERTEX_POINT('',#1771);
#618=VERTEX_POINT('',#1773);
#619=VERTEX_POINT('',#1775);
#620=VERTEX_POINT('',#1777);
#621=VERTEX_POINT('',#1779);
#622=VERTEX_POINT('',#1781);
#623=VERTEX_POINT('',#1783);
#624=VERTEX_POINT('',#1787);
#625=VERTEX_POINT('',#1788);
#626=VERTEX_POINT('',#1791);
#627=VERTEX_POINT('',#1795);
#628=VERTEX_POINT('',#1797);
#629=VERTEX_POINT('',#1804);
#630=VERTEX_POINT('',#1805);
#631=VERTEX_POINT('',#1811);
#632=VERTEX_POINT('',#1813);
#633=VERTEX_POINT('',#1815);
#634=VERTEX_POINT('',#1817);
#635=VERTEX_POINT('',#1819);
#636=VERTEX_POINT('',#1821);
#637=VERTEX_POINT('',#1823);
#638=VERTEX_POINT('',#1825);
#639=VERTEX_POINT('',#1830);
#640=VERTEX_POINT('',#1833);
#641=VERTEX_POINT('',#1835);
#642=VERTEX_POINT('',#1837);
#643=VERTEX_POINT('',#1841);
#644=VERTEX_POINT('',#1843);
#645=VERTEX_POINT('',#1847);
#646=VERTEX_POINT('',#1849);
#647=VERTEX_POINT('',#1853);
#648=VERTEX_POINT('',#1855);
#649=VERTEX_POINT('',#1859);
#650=VERTEX_POINT('',#1861);
#651=VERTEX_POINT('',#1865);
#652=VERTEX_POINT('',#1867);
#653=VERTEX_POINT('',#1871);
#654=VERTEX_POINT('',#1873);
#655=VERTEX_POINT('',#1879);
#656=VERTEX_POINT('',#1881);
#657=VERTEX_POINT('',#1885);
#658=VERTEX_POINT('',#1887);
#659=VERTEX_POINT('',#1890);
#660=VERTEX_POINT('',#1892);
#661=VERTEX_POINT('',#1895);
#662=VERTEX_POINT('',#1897);
#663=VERTEX_POINT('',#1899);
#664=VERTEX_POINT('',#1901);
#665=VERTEX_POINT('',#1904);
#666=VERTEX_POINT('',#1908);
#667=VERTEX_POINT('',#1909);
#668=VERTEX_POINT('',#1911);
#669=VERTEX_POINT('',#1913);
#670=VERTEX_POINT('',#1915);
#671=VERTEX_POINT('',#1917);
#672=VERTEX_POINT('',#1925);
#673=VERTEX_POINT('',#1929);
#674=VERTEX_POINT('',#1933);
#675=VERTEX_POINT('',#1937);
#676=VERTEX_POINT('',#1944);
#677=VERTEX_POINT('',#1951);
#678=VERTEX_POINT('',#1953);
#679=VERTEX_POINT('',#1956);
#680=VERTEX_POINT('',#1961);
#681=VERTEX_POINT('',#1968);
#682=VERTEX_POINT('',#1971);
#683=VERTEX_POINT('',#1987);
#684=LINE('',#1683,#813);
#685=LINE('',#1686,#814);
#686=LINE('',#1688,#815);
#687=LINE('',#1690,#816);
#688=LINE('',#1691,#817);
#689=LINE('',#1696,#818);
#690=LINE('',#1700,#819);
#691=LINE('',#1703,#820);
#692=LINE('',#1705,#821);
#693=LINE('',#1707,#822);
#694=LINE('',#1709,#823);
#695=LINE('',#1711,#824);
#696=LINE('',#1715,#825);
#697=LINE('',#1719,#826);
#698=LINE('',#1721,#827);
#699=LINE('',#1724,#828);
#700=LINE('',#1726,#829);
#701=LINE('',#1728,#830);
#702=LINE('',#1730,#831);
#703=LINE('',#1733,#832);
#704=LINE('',#1735,#833);
#705=LINE('',#1737,#834);
#706=LINE('',#1739,#835);
#707=LINE('',#1741,#836);
#708=LINE('',#1743,#837);
#709=LINE('',#1745,#838);
#710=LINE('',#1746,#839);
#711=LINE('',#1748,#840);
#712=LINE('',#1751,#841);
#713=LINE('',#1753,#842);
#714=LINE('',#1755,#843);
#715=LINE('',#1757,#844);
#716=LINE('',#1759,#845);
#717=LINE('',#1761,#846);
#718=LINE('',#1763,#847);
#719=LINE('',#1765,#848);
#720=LINE('',#1767,#849);
#721=LINE('',#1769,#850);
#722=LINE('',#1772,#851);
#723=LINE('',#1774,#852);
#724=LINE('',#1776,#853);
#725=LINE('',#1778,#854);
#726=LINE('',#1780,#855);
#727=LINE('',#1782,#856);
#728=LINE('',#1784,#857);
#729=LINE('',#1786,#858);
#730=LINE('',#1789,#859);
#731=LINE('',#1790,#860);
#732=LINE('',#1792,#861);
#733=LINE('',#1794,#862);
#734=LINE('',#1796,#863);
#735=LINE('',#1798,#864);
#736=LINE('',#1800,#865);
#737=LINE('',#1801,#866);
#738=LINE('',#1803,#867);
#739=LINE('',#1806,#868);
#740=LINE('',#1807,#869);
#741=LINE('',#1808,#870);
#742=LINE('',#1812,#871);
#743=LINE('',#1816,#872);
#744=LINE('',#1820,#873);
#745=LINE('',#1824,#874);
#746=LINE('',#1828,#875);
#747=LINE('',#1829,#876);
#748=LINE('',#1831,#877);
#749=LINE('',#1832,#878);
#750=LINE('',#1834,#879);
#751=LINE('',#1836,#880);
#752=LINE('',#1838,#881);
#753=LINE('',#1840,#882);
#754=LINE('',#1842,#883);
#755=LINE('',#1844,#884);
#756=LINE('',#1846,#885);
#757=LINE('',#1848,#886);
#758=LINE('',#1850,#887);
#759=LINE('',#1852,#888);
#760=LINE('',#1854,#889);
#761=LINE('',#1856,#890);
#762=LINE('',#1858,#891);
#763=LINE('',#1860,#892);
#764=LINE('',#1862,#893);
#765=LINE('',#1864,#894);
#766=LINE('',#1866,#895);
#767=LINE('',#1868,#896);
#768=LINE('',#1875,#897);
#769=LINE('',#1876,#898);
#770=LINE('',#1878,#899);
#771=LINE('',#1880,#900);
#772=LINE('',#1882,#901);
#773=LINE('',#1891,#902);
#774=LINE('',#1893,#903);
#775=LINE('',#1894,#904);
#776=LINE('',#1896,#905);
#777=LINE('',#1898,#906);
#778=LINE('',#1900,#907);
#779=LINE('',#1902,#908);
#780=LINE('',#1903,#909);
#781=LINE('',#1905,#910);
#782=LINE('',#1907,#911);
#783=LINE('',#1910,#912);
#784=LINE('',#1912,#913);
#785=LINE('',#1914,#914);
#786=LINE('',#1916,#915);
#787=LINE('',#1918,#916);
#788=LINE('',#1920,#917);
#789=LINE('',#1921,#918);
#790=LINE('',#1924,#919);
#791=LINE('',#1926,#920);
#792=LINE('',#1928,#921);
#793=LINE('',#1930,#922);
#794=LINE('',#1932,#923);
#795=LINE('',#1934,#924);
#796=LINE('',#1936,#925);
#797=LINE('',#1938,#926);
#798=LINE('',#1940,#927);
#799=LINE('',#1943,#928);
#800=LINE('',#1945,#929);
#801=LINE('',#1947,#930);
#802=LINE('',#1960,#931);
#803=LINE('',#1962,#932);
#804=LINE('',#1964,#933);
#805=LINE('',#1969,#934);
#806=LINE('',#1970,#935);
#807=LINE('',#1972,#936);
#808=LINE('',#1975,#937);
#809=LINE('',#1978,#938);
#810=LINE('',#1979,#939);
#811=LINE('',#1981,#940);
#812=LINE('',#1983,#941);
#813=VECTOR('',#1342,1.);
#814=VECTOR('',#1343,1.);
#815=VECTOR('',#1344,1.);
#816=VECTOR('',#1345,1.);
#817=VECTOR('',#1346,1.);
#818=VECTOR('',#1349,1.);
#819=VECTOR('',#1354,1.);
#820=VECTOR('',#1355,1.);
#821=VECTOR('',#1356,1.);
#822=VECTOR('',#1357,1.);
#823=VECTOR('',#1358,1.);
#824=VECTOR('',#1359,1.);
#825=VECTOR('',#1362,1.);
#826=VECTOR('',#1365,1.);
#827=VECTOR('',#1368,1.);
#828=VECTOR('',#1369,1.);
#829=VECTOR('',#1370,1.);
#830=VECTOR('',#1371,1.);
#831=VECTOR('',#1374,1.);
#832=VECTOR('',#1375,1.);
#833=VECTOR('',#1376,1.);
#834=VECTOR('',#1377,1.);
#835=VECTOR('',#1378,1.);
#836=VECTOR('',#1379,1.);
#837=VECTOR('',#1380,1.);
#838=VECTOR('',#1381,1.);
#839=VECTOR('',#1382,1.);
#840=VECTOR('',#1385,1.);
#841=VECTOR('',#1386,1.);
#842=VECTOR('',#1387,1.);
#843=VECTOR('',#1388,1.);
#844=VECTOR('',#1389,1.);
#845=VECTOR('',#1390,1.);
#846=VECTOR('',#1391,1.);
#847=VECTOR('',#1392,1.);
#848=VECTOR('',#1393,1.);
#849=VECTOR('',#1394,1.);
#850=VECTOR('',#1397,1.);
#851=VECTOR('',#1398,1.);
#852=VECTOR('',#1399,1.);
#853=VECTOR('',#1400,1.);
#854=VECTOR('',#1401,1.);
#855=VECTOR('',#1402,1.);
#856=VECTOR('',#1403,1.);
#857=VECTOR('',#1404,1.);
#858=VECTOR('',#1407,1.);
#859=VECTOR('',#1408,1.);
#860=VECTOR('',#1409,1.);
#861=VECTOR('',#1410,1.);
#862=VECTOR('',#1413,1.);
#863=VECTOR('',#1414,1.);
#864=VECTOR('',#1415,1.);
#865=VECTOR('',#1418,1.);
#866=VECTOR('',#1419,1.);
#867=VECTOR('',#1422,1.);
#868=VECTOR('',#1423,1.);
#869=VECTOR('',#1424,1.);
#870=VECTOR('',#1425,1.);
#871=VECTOR('',#1430,1.);
#872=VECTOR('',#1433,1.);
#873=VECTOR('',#1436,1.);
#874=VECTOR('',#1439,1.);
#875=VECTOR('',#1444,1.);
#876=VECTOR('',#1445,1.);
#877=VECTOR('',#1446,1.);
#878=VECTOR('',#1447,1.);
#879=VECTOR('',#1448,1.);
#880=VECTOR('',#1449,1.);
#881=VECTOR('',#1450,1.);
#882=VECTOR('',#1453,1.);
#883=VECTOR('',#1454,1.);
#884=VECTOR('',#1455,1.);
#885=VECTOR('',#1458,1.);
#886=VECTOR('',#1459,1.);
#887=VECTOR('',#1460,1.);
#888=VECTOR('',#1463,1.);
#889=VECTOR('',#1464,1.);
#890=VECTOR('',#1465,1.);
#891=VECTOR('',#1468,1.);
#892=VECTOR('',#1469,1.);
#893=VECTOR('',#1470,1.);
#894=VECTOR('',#1473,1.);
#895=VECTOR('',#1474,1.);
#896=VECTOR('',#1475,1.);
#897=VECTOR('',#1484,1.);
#898=VECTOR('',#1485,1.);
#899=VECTOR('',#1488,1.);
#900=VECTOR('',#1489,1.);
#901=VECTOR('',#1490,1.);
#902=VECTOR('',#1501,1.);
#903=VECTOR('',#1502,1.);
#904=VECTOR('',#1503,1.);
#905=VECTOR('',#1504,1.);
#906=VECTOR('',#1505,1.);
#907=VECTOR('',#1506,1.);
#908=VECTOR('',#1507,1.);
#909=VECTOR('',#1508,1.);
#910=VECTOR('',#1509,1.);
#911=VECTOR('',#1512,1.);
#912=VECTOR('',#1513,1.);
#913=VECTOR('',#1514,1.);
#914=VECTOR('',#1515,1.);
#915=VECTOR('',#1516,1.);
#916=VECTOR('',#1517,1.);
#917=VECTOR('',#1520,1.);
#918=VECTOR('',#1521,1.);
#919=VECTOR('',#1526,1.);
#920=VECTOR('',#1527,1.);
#921=VECTOR('',#1530,1.);
#922=VECTOR('',#1531,1.);
#923=VECTOR('',#1534,1.);
#924=VECTOR('',#1535,1.);
#925=VECTOR('',#1538,1.);
#926=VECTOR('',#1539,1.);
#927=VECTOR('',#1542,1.);
#928=VECTOR('',#1547,1.);
#929=VECTOR('',#1548,1.);
#930=VECTOR('',#1551,1.);
#931=VECTOR('',#1570,1.);
#932=VECTOR('',#1571,1.);
#933=VECTOR('',#1574,1.);
#934=VECTOR('',#1581,1.);
#935=VECTOR('',#1582,1.);
#936=VECTOR('',#1583,1.);
#937=VECTOR('',#1588,1.);
#938=VECTOR('',#1593,1.);
#939=VECTOR('',#1594,1.);
#940=VECTOR('',#1597,1.);
#941=VECTOR('',#1600,1.);
#942=EDGE_LOOP('',(#75,#76,#77,#78));
#943=EDGE_LOOP('',(#79,#80,#81,#82));
#944=EDGE_LOOP('',(#83,#84,#85,#86,#87,#88));
#945=EDGE_LOOP('',(#89,#90,#91,#92));
#946=EDGE_LOOP('',(#93,#94,#95,#96));
#947=EDGE_LOOP('',(#97,#98,#99,#100,#101,#102,#103,#104,#105,#106));
#948=EDGE_LOOP('',(#107,#108,#109,#110,#111,#112,#113,#114,#115,#116));
#949=EDGE_LOOP('',(#117,#118,#119,#120,#121,#122,#123,#124));
#950=EDGE_LOOP('',(#125,#126,#127,#128,#129));
#951=EDGE_LOOP('',(#130,#131,#132,#133));
#952=EDGE_LOOP('',(#134,#135,#136,#137));
#953=EDGE_LOOP('',(#138,#139,#140,#141,#142,#143));
#954=EDGE_LOOP('',(#144,#145,#146,#147,#148,#149,#150,#151,#152,#153,#154,
#155,#156,#157,#158,#159,#160,#161,#162,#163,#164,#165,#166,#167));
#955=EDGE_LOOP('',(#168,#169,#170,#171));
#956=EDGE_LOOP('',(#172,#173,#174,#175));
#957=EDGE_LOOP('',(#176,#177,#178,#179));
#958=EDGE_LOOP('',(#180,#181,#182,#183));
#959=EDGE_LOOP('',(#184,#185,#186,#187));
#960=EDGE_LOOP('',(#188));
#961=EDGE_LOOP('',(#189));
#962=EDGE_LOOP('',(#190,#191,#192,#193));
#963=EDGE_LOOP('',(#194,#195,#196,#197));
#964=EDGE_LOOP('',(#198));
#965=EDGE_LOOP('',(#199));
#966=EDGE_LOOP('',(#200));
#967=EDGE_LOOP('',(#201,#202,#203,#204,#205,#206,#207,#208,#209,#210,#211,
#212,#213,#214,#215,#216,#217,#218,#219));
#968=EDGE_LOOP('',(#220));
#969=EDGE_LOOP('',(#221));
#970=EDGE_LOOP('',(#222,#223,#224,#225,#226,#227));
#971=EDGE_LOOP('',(#228,#229,#230,#231));
#972=EDGE_LOOP('',(#232));
#973=EDGE_LOOP('',(#233));
#974=EDGE_LOOP('',(#234,#235,#236,#237,#238));
#975=EDGE_LOOP('',(#239,#240,#241,#242));
#976=EDGE_LOOP('',(#243,#244,#245,#246));
#977=EDGE_LOOP('',(#247,#248,#249,#250));
#978=EDGE_LOOP('',(#251,#252,#253,#254));
#979=EDGE_LOOP('',(#255,#256,#257,#258));
#980=EDGE_LOOP('',(#259,#260,#261,#262));
#981=EDGE_LOOP('',(#263,#264,#265,#266,#267,#268,#269,#270));
#982=EDGE_LOOP('',(#271,#272,#273,#274));
#983=EDGE_LOOP('',(#275,#276,#277,#278));
#984=EDGE_LOOP('',(#279,#280,#281,#282));
#985=EDGE_LOOP('',(#283));
#986=EDGE_LOOP('',(#284));
#987=EDGE_LOOP('',(#285));
#988=EDGE_LOOP('',(#286));
#989=EDGE_LOOP('',(#287));
#990=EDGE_LOOP('',(#288));
#991=EDGE_LOOP('',(#289));
#992=EDGE_LOOP('',(#290,#291,#292,#293));
#993=EDGE_LOOP('',(#294,#295,#296,#297));
#994=EDGE_LOOP('',(#298,#299,#300,#301));
#995=EDGE_LOOP('',(#302));
#996=EDGE_LOOP('',(#303,#304,#305,#306,#307,#308,#309,#310,#311));
#997=EDGE_LOOP('',(#312,#313,#314,#315));
#998=EDGE_LOOP('',(#316,#317,#318,#319));
#999=EDGE_LOOP('',(#320,#321,#322,#323));
#1000=EDGE_LOOP('',(#324,#325,#326,#327));
#1001=EDGE_LOOP('',(#328,#329,#330,#331));
#1002=EDGE_LOOP('',(#332,#333,#334,#335));
#1003=EDGE_LOOP('',(#336,#337,#338,#339));
#1004=EDGE_LOOP('',(#340));
#1005=EDGE_LOOP('',(#341));
#1006=EDGE_LOOP('',(#342));
#1007=EDGE_LOOP('',(#343,#344,#345,#346));
#1008=EDGE_LOOP('',(#347,#348,#349));
#1009=EDGE_LOOP('',(#350,#351,#352,#353));
#1010=EDGE_LOOP('',(#354,#355,#356,#357));
#1011=EDGE_LOOP('',(#358,#359,#360,#361));
#1012=EDGE_LOOP('',(#362,#363,#364,#365));
#1013=EDGE_LOOP('',(#366,#367,#368));
#1014=EDGE_LOOP('',(#369,#370,#371));
#1015=EDGE_LOOP('',(#372,#373,#374,#375));
#1016=EDGE_LOOP('',(#376,#377,#378,#379));
#1017=EDGE_LOOP('',(#380,#381,#382,#383));
#1018=EDGE_LOOP('',(#384,#385,#386,#387));
#1019=EDGE_LOOP('',(#388,#389,#390));
#1020=EDGE_LOOP('',(#391,#392,#393));
#1021=EDGE_LOOP('',(#394,#395,#396,#397));
#1022=EDGE_LOOP('',(#398,#399,#400,#401));
#1023=EDGE_LOOP('',(#402,#403,#404));
#1024=EDGE_LOOP('',(#405,#406,#407,#408));
#1025=FACE_BOUND('',#942,.T.);
#1026=FACE_BOUND('',#943,.T.);
#1027=FACE_BOUND('',#944,.T.);
#1028=FACE_BOUND('',#945,.T.);
#1029=FACE_BOUND('',#946,.T.);
#1030=FACE_BOUND('',#947,.T.);
#1031=FACE_BOUND('',#948,.T.);
#1032=FACE_BOUND('',#949,.T.);
#1033=FACE_BOUND('',#950,.T.);
#1034=FACE_BOUND('',#951,.T.);
#1035=FACE_BOUND('',#952,.T.);
#1036=FACE_BOUND('',#953,.T.);
#1037=FACE_BOUND('',#954,.T.);
#1038=FACE_BOUND('',#955,.T.);
#1039=FACE_BOUND('',#956,.T.);
#1040=FACE_BOUND('',#957,.T.);
#1041=FACE_BOUND('',#958,.T.);
#1042=FACE_BOUND('',#959,.T.);
#1043=FACE_BOUND('',#960,.T.);
#1044=FACE_BOUND('',#961,.T.);
#1045=FACE_BOUND('',#962,.T.);
#1046=FACE_BOUND('',#963,.T.);
#1047=FACE_BOUND('',#964,.T.);
#1048=FACE_BOUND('',#965,.T.);
#1049=FACE_BOUND('',#966,.T.);
#1050=FACE_BOUND('',#967,.T.);
#1051=FACE_BOUND('',#968,.T.);
#1052=FACE_BOUND('',#969,.T.);
#1053=FACE_BOUND('',#970,.T.);
#1054=FACE_BOUND('',#971,.T.);
#1055=FACE_BOUND('',#972,.T.);
#1056=FACE_BOUND('',#973,.T.);
#1057=FACE_BOUND('',#974,.T.);
#1058=FACE_BOUND('',#975,.T.);
#1059=FACE_BOUND('',#976,.T.);
#1060=FACE_BOUND('',#977,.T.);
#1061=FACE_BOUND('',#978,.T.);
#1062=FACE_BOUND('',#979,.T.);
#1063=FACE_BOUND('',#980,.T.);
#1064=FACE_BOUND('',#981,.T.);
#1065=FACE_BOUND('',#982,.T.);
#1066=FACE_BOUND('',#983,.T.);
#1067=FACE_BOUND('',#984,.T.);
#1068=FACE_BOUND('',#985,.T.);
#1069=FACE_BOUND('',#986,.T.);
#1070=FACE_BOUND('',#987,.T.);
#1071=FACE_BOUND('',#988,.T.);
#1072=FACE_BOUND('',#989,.T.);
#1073=FACE_BOUND('',#990,.T.);
#1074=FACE_BOUND('',#991,.T.);
#1075=FACE_BOUND('',#992,.T.);
#1076=FACE_BOUND('',#993,.T.);
#1077=FACE_BOUND('',#994,.T.);
#1078=FACE_BOUND('',#995,.T.);
#1079=FACE_BOUND('',#996,.T.);
#1080=FACE_BOUND('',#997,.T.);
#1081=FACE_BOUND('',#998,.T.);
#1082=FACE_BOUND('',#999,.T.);
#1083=FACE_BOUND('',#1000,.T.);
#1084=FACE_BOUND('',#1001,.T.);
#1085=FACE_BOUND('',#1002,.T.);
#1086=FACE_BOUND('',#1003,.T.);
#1087=FACE_BOUND('',#1004,.T.);
#1088=FACE_BOUND('',#1005,.T.);
#1089=FACE_BOUND('',#1006,.T.);
#1090=FACE_BOUND('',#1007,.T.);
#1091=FACE_BOUND('',#1008,.T.);
#1092=FACE_BOUND('',#1009,.T.);
#1093=FACE_BOUND('',#1010,.T.);
#1094=FACE_BOUND('',#1011,.T.);
#1095=FACE_BOUND('',#1012,.T.);
#1096=FACE_BOUND('',#1013,.T.);
#1097=FACE_BOUND('',#1014,.T.);
#1098=FACE_BOUND('',#1015,.T.);
#1099=FACE_BOUND('',#1016,.T.);
#1100=FACE_BOUND('',#1017,.T.);
#1101=FACE_BOUND('',#1018,.T.);
#1102=FACE_BOUND('',#1019,.T.);
#1103=FACE_BOUND('',#1020,.T.);
#1104=FACE_BOUND('',#1021,.T.);
#1105=FACE_BOUND('',#1022,.T.);
#1106=FACE_BOUND('',#1023,.T.);
#1107=FACE_BOUND('',#1024,.T.);
#1108=PLANE('',#1232);
#1109=PLANE('',#1235);
#1110=PLANE('',#1238);
#1111=PLANE('',#1239);
#1112=PLANE('',#1240);
#1113=PLANE('',#1241);
#1114=PLANE('',#1242);
#1115=PLANE('',#1243);
#1116=PLANE('',#1244);
#1117=PLANE('',#1245);
#1118=PLANE('',#1246);
#1119=PLANE('',#1253);
#1120=PLANE('',#1254);
#1121=PLANE('',#1255);
#1122=PLANE('',#1256);
#1123=PLANE('',#1257);
#1124=PLANE('',#1261);
#1125=PLANE('',#1262);
#1126=PLANE('',#1266);
#1127=PLANE('',#1268);
#1128=PLANE('',#1269);
#1129=PLANE('',#1270);
#1130=PLANE('',#1271);
#1131=PLANE('',#1272);
#1132=PLANE('',#1273);
#1133=PLANE('',#1274);
#1134=PLANE('',#1275);
#1135=PLANE('',#1276);
#1136=PLANE('',#1277);
#1137=PLANE('',#1278);
#1138=PLANE('',#1279);
#1139=PLANE('',#1285);
#1140=PLANE('',#1286);
#1141=PLANE('',#1287);
#1142=PLANE('',#1288);
#1143=PLANE('',#1289);
#1144=PLANE('',#1290);
#1145=PLANE('',#1292);
#1146=PLANE('',#1293);
#1147=PLANE('',#1294);
#1148=PLANE('',#1295);
#1149=PLANE('',#1297);
#1150=PLANE('',#1301);
#1151=ADVANCED_FACE('',(#1025,#1026),#1108,.F.);
#1152=ADVANCED_FACE('',(#1027,#1028),#1109,.T.);
#1153=ADVANCED_FACE('',(#1029),#1110,.F.);
#1154=ADVANCED_FACE('',(#1030),#1111,.F.);
#1155=ADVANCED_FACE('',(#1031),#1112,.F.);
#1156=ADVANCED_FACE('',(#1032),#1113,.T.);
#1157=ADVANCED_FACE('',(#1033),#1114,.T.);
#1158=ADVANCED_FACE('',(#1034),#1115,.F.);
#1159=ADVANCED_FACE('',(#1035),#1116,.T.);
#1160=ADVANCED_FACE('',(#1036),#1117,.F.);
#1161=ADVANCED_FACE('',(#1037),#1118,.T.);
#1162=ADVANCED_FACE('',(#1038),#1119,.T.);
#1163=ADVANCED_FACE('',(#1039),#1120,.F.);
#1164=ADVANCED_FACE('',(#1040),#1121,.F.);
#1165=ADVANCED_FACE('',(#1041),#1122,.F.);
#1166=ADVANCED_FACE('',(#1042),#1123,.T.);
#1167=ADVANCED_FACE('',(#1043,#1044),#18,.F.);
#1168=ADVANCED_FACE('',(#1045),#1124,.F.);
#1169=ADVANCED_FACE('',(#1046),#1125,.T.);
#1170=ADVANCED_FACE('',(#1047,#1048),#19,.F.);
#1171=ADVANCED_FACE('',(#1049,#1050,#1051,#1052),#1126,.T.);
#1172=ADVANCED_FACE('',(#1053,#1054,#1055,#1056),#1127,.F.);
#1173=ADVANCED_FACE('',(#1057),#1128,.T.);
#1174=ADVANCED_FACE('',(#1058),#1129,.T.);
#1175=ADVANCED_FACE('',(#1059),#1130,.T.);
#1176=ADVANCED_FACE('',(#1060),#1131,.F.);
#1177=ADVANCED_FACE('',(#1061),#1132,.T.);
#1178=ADVANCED_FACE('',(#1062),#1133,.F.);
#1179=ADVANCED_FACE('',(#1063),#1134,.F.);
#1180=ADVANCED_FACE('',(#1064),#1135,.T.);
#1181=ADVANCED_FACE('',(#1065),#1136,.F.);
#1182=ADVANCED_FACE('',(#1066),#1137,.T.);
#1183=ADVANCED_FACE('',(#1067),#1138,.T.);
#1184=ADVANCED_FACE('',(#1068,#1069),#20,.F.);
#1185=ADVANCED_FACE('',(#1070,#1071),#21,.T.);
#1186=ADVANCED_FACE('',(#1072,#1073),#1139,.T.);
#1187=ADVANCED_FACE('',(#1074),#1140,.T.);
#1188=ADVANCED_FACE('',(#1075),#1141,.T.);
#1189=ADVANCED_FACE('',(#1076),#1142,.T.);
#1190=ADVANCED_FACE('',(#1077),#1143,.T.);
#1191=ADVANCED_FACE('',(#1078,#1079),#1144,.T.);
#1192=ADVANCED_FACE('',(#1080),#1145,.T.);
#1193=ADVANCED_FACE('',(#1081),#1146,.T.);
#1194=ADVANCED_FACE('',(#1082),#1147,.F.);
#1195=ADVANCED_FACE('',(#1083),#1148,.T.);
#1196=ADVANCED_FACE('',(#1084),#22,.F.);
#1197=ADVANCED_FACE('',(#1085),#1149,.F.);
#1198=ADVANCED_FACE('',(#1086),#23,.F.);
#1199=ADVANCED_FACE('',(#1087,#1088),#24,.F.);
#1200=ADVANCED_FACE('',(#1089),#1150,.T.);
#1201=ADVANCED_FACE('',(#1090),#25,.T.);
#1202=ADVANCED_FACE('',(#1091),#12,.T.);
#1203=ADVANCED_FACE('',(#1092),#26,.T.);
#1204=ADVANCED_FACE('',(#1093),#27,.T.);
#1205=ADVANCED_FACE('',(#1094),#28,.T.);
#1206=ADVANCED_FACE('',(#1095),#29,.T.);
#1207=ADVANCED_FACE('',(#1096),#13,.T.);
#1208=ADVANCED_FACE('',(#1097),#14,.T.);
#1209=ADVANCED_FACE('',(#1098),#30,.T.);
#1210=ADVANCED_FACE('',(#1099),#31,.T.);
#1211=ADVANCED_FACE('',(#1100),#32,.T.);
#1212=ADVANCED_FACE('',(#1101),#33,.T.);
#1213=ADVANCED_FACE('',(#1102),#15,.T.);
#1214=ADVANCED_FACE('',(#1103),#16,.T.);
#1215=ADVANCED_FACE('',(#1104),#34,.T.);
#1216=ADVANCED_FACE('',(#1105),#35,.T.);
#1217=ADVANCED_FACE('',(#1106),#17,.T.);
#1218=ADVANCED_FACE('',(#1107),#36,.T.);
#1219=CLOSED_SHELL('',(#1151,#1152,#1153,#1154,#1155,#1156,#1157,#1158,
#1159,#1160,#1161,#1162,#1163,#1164,#1165,#1166,#1167,#1168,#1169,#1170,
#1171,#1172,#1173,#1174,#1175,#1176,#1177,#1178,#1179,#1180,#1181,#1182,
#1183,#1184,#1185,#1186,#1187,#1188,#1189,#1190,#1191,#1192,#1193,#1194,
#1195,#1196,#1197,#1198,#1199,#1200,#1201,#1202,#1203,#1204,#1205,#1206,
#1207,#1208,#1209,#1210,#1211,#1212,#1213,#1214,#1215,#1216,#1217,#1218));
#1220=STYLED_ITEM('',(#1221),#1228);
#1221=PRESENTATION_STYLE_ASSIGNMENT((#1222));
#1222=SURFACE_STYLE_USAGE(.BOTH.,#1223);
#1223=SURFACE_SIDE_STYLE('',(#1224));
#1224=SURFACE_STYLE_FILL_AREA(#1225);
#1225=FILL_AREA_STYLE('',(#1226));
#1226=FILL_AREA_STYLE_COLOUR('',#1227);
#1227=COLOUR_RGB('',0.615686274509804,0.811764705882353,0.929411764705882);
#1228=MANIFOLD_SOLID_BREP('Part 1',#1219);
#1229=SHAPE_DEFINITION_REPRESENTATION(#2031,#1230);
#1230=SHAPE_REPRESENTATION('Part 1',(#1231),#2026);
#1231=AXIS2_PLACEMENT_3D('',#1681,#1338,#1339);
#1232=AXIS2_PLACEMENT_3D('',#1682,#1340,#1341);
#1233=AXIS2_PLACEMENT_3D('',#1694,#1347,#1348);
#1234=AXIS2_PLACEMENT_3D('',#1698,#1350,#1351);
#1235=AXIS2_PLACEMENT_3D('',#1699,#1352,#1353);
#1236=AXIS2_PLACEMENT_3D('',#1712,#1360,#1361);
#1237=AXIS2_PLACEMENT_3D('',#1717,#1363,#1364);
#1238=AXIS2_PLACEMENT_3D('',#1720,#1366,#1367);
#1239=AXIS2_PLACEMENT_3D('',#1729,#1372,#1373);
#1240=AXIS2_PLACEMENT_3D('',#1747,#1383,#1384);
#1241=AXIS2_PLACEMENT_3D('',#1768,#1395,#1396);
#1242=AXIS2_PLACEMENT_3D('',#1785,#1405,#1406);
#1243=AXIS2_PLACEMENT_3D('',#1793,#1411,#1412);
#1244=AXIS2_PLACEMENT_3D('',#1799,#1416,#1417);
#1245=AXIS2_PLACEMENT_3D('',#1802,#1420,#1421);
#1246=AXIS2_PLACEMENT_3D('',#1809,#1426,#1427);
#1247=AXIS2_PLACEMENT_3D('',#1810,#1428,#1429);
#1248=AXIS2_PLACEMENT_3D('',#1814,#1431,#1432);
#1249=AXIS2_PLACEMENT_3D('',#1818,#1434,#1435);
#1250=AXIS2_PLACEMENT_3D('',#1822,#1437,#1438);
#1251=AXIS2_PLACEMENT_3D('',#1826,#1440,#1441);
#1252=AXIS2_PLACEMENT_3D('',#1827,#1442,#1443);
#1253=AXIS2_PLACEMENT_3D('',#1839,#1451,#1452);
#1254=AXIS2_PLACEMENT_3D('',#1845,#1456,#1457);
#1255=AXIS2_PLACEMENT_3D('',#1851,#1461,#1462);
#1256=AXIS2_PLACEMENT_3D('',#1857,#1466,#1467);
#1257=AXIS2_PLACEMENT_3D('',#1863,#1471,#1472);
#1258=AXIS2_PLACEMENT_3D('',#1869,#1476,#1477);
#1259=AXIS2_PLACEMENT_3D('',#1870,#1478,#1479);
#1260=AXIS2_PLACEMENT_3D('',#1872,#1480,#1481);
#1261=AXIS2_PLACEMENT_3D('',#1874,#1482,#1483);
#1262=AXIS2_PLACEMENT_3D('',#1877,#1486,#1487);
#1263=AXIS2_PLACEMENT_3D('',#1883,#1491,#1492);
#1264=AXIS2_PLACEMENT_3D('',#1884,#1493,#1494);
#1265=AXIS2_PLACEMENT_3D('',#1886,#1495,#1496);
#1266=AXIS2_PLACEMENT_3D('',#1888,#1497,#1498);
#1267=AXIS2_PLACEMENT_3D('',#1889,#1499,#1500);
#1268=AXIS2_PLACEMENT_3D('',#1906,#1510,#1511);
#1269=AXIS2_PLACEMENT_3D('',#1919,#1518,#1519);
#1270=AXIS2_PLACEMENT_3D('',#1922,#1522,#1523);
#1271=AXIS2_PLACEMENT_3D('',#1923,#1524,#1525);
#1272=AXIS2_PLACEMENT_3D('',#1927,#1528,#1529);
#1273=AXIS2_PLACEMENT_3D('',#1931,#1532,#1533);
#1274=AXIS2_PLACEMENT_3D('',#1935,#1536,#1537);
#1275=AXIS2_PLACEMENT_3D('',#1939,#1540,#1541);
#1276=AXIS2_PLACEMENT_3D('',#1941,#1543,#1544);
#1277=AXIS2_PLACEMENT_3D('',#1942,#1545,#1546);
#1278=AXIS2_PLACEMENT_3D('',#1946,#1549,#1550);
#1279=AXIS2_PLACEMENT_3D('',#1948,#1552,#1553);
#1280=AXIS2_PLACEMENT_3D('',#1949,#1554,#1555);
#1281=AXIS2_PLACEMENT_3D('',#1950,#1556,#1557);
#1282=AXIS2_PLACEMENT_3D('',#1952,#1558,#1559);
#1283=AXIS2_PLACEMENT_3D('',#1954,#1560,#1561);
#1284=AXIS2_PLACEMENT_3D('',#1955,#1562,#1563);
#1285=AXIS2_PLACEMENT_3D('',#1957,#1564,#1565);
#1286=AXIS2_PLACEMENT_3D('',#1958,#1566,#1567);
#1287=AXIS2_PLACEMENT_3D('',#1959,#1568,#1569);
#1288=AXIS2_PLACEMENT_3D('',#1963,#1572,#1573);
#1289=AXIS2_PLACEMENT_3D('',#1965,#1575,#1576);
#1290=AXIS2_PLACEMENT_3D('',#1966,#1577,#1578);
#1291=AXIS2_PLACEMENT_3D('',#1967,#1579,#1580);
#1292=AXIS2_PLACEMENT_3D('',#1973,#1584,#1585);
#1293=AXIS2_PLACEMENT_3D('',#1974,#1586,#1587);
#1294=AXIS2_PLACEMENT_3D('',#1976,#1589,#1590);
#1295=AXIS2_PLACEMENT_3D('',#1977,#1591,#1592);
#1296=AXIS2_PLACEMENT_3D('',#1980,#1595,#1596);
#1297=AXIS2_PLACEMENT_3D('',#1982,#1598,#1599);
#1298=AXIS2_PLACEMENT_3D('',#1984,#1601,#1602);
#1299=AXIS2_PLACEMENT_3D('',#1985,#1603,#1604);
#1300=AXIS2_PLACEMENT_3D('',#1986,#1605,#1606);
#1301=AXIS2_PLACEMENT_3D('',#1988,#1607,#1608);
#1302=AXIS2_PLACEMENT_3D('',#1989,#1609,#1610);
#1303=AXIS2_PLACEMENT_3D('',#1990,#1611,#1612);
#1304=AXIS2_PLACEMENT_3D('',#1991,#1613,#1614);
#1305=AXIS2_PLACEMENT_3D('',#1992,#1615,#1616);
#1306=AXIS2_PLACEMENT_3D('',#1993,#1617,#1618);
#1307=AXIS2_PLACEMENT_3D('',#1994,#1619,#1620);
#1308=AXIS2_PLACEMENT_3D('',#1995,#1621,#1622);
#1309=AXIS2_PLACEMENT_3D('',#1996,#1623,#1624);
#1310=AXIS2_PLACEMENT_3D('',#1997,#1625,#1626);
#1311=AXIS2_PLACEMENT_3D('',#1998,#1627,#1628);
#1312=AXIS2_PLACEMENT_3D('',#1999,#1629,#1630);
#1313=AXIS2_PLACEMENT_3D('',#2000,#1631,#1632);
#1314=AXIS2_PLACEMENT_3D('',#2001,#1633,#1634);
#1315=AXIS2_PLACEMENT_3D('',#2002,#1635,#1636);
#1316=AXIS2_PLACEMENT_3D('',#2003,#1637,#1638);
#1317=AXIS2_PLACEMENT_3D('',#2004,#1639,#1640);
#1318=AXIS2_PLACEMENT_3D('',#2005,#1641,#1642);
#1319=AXIS2_PLACEMENT_3D('',#2006,#1643,#1644);
#1320=AXIS2_PLACEMENT_3D('',#2007,#1645,#1646);
#1321=AXIS2_PLACEMENT_3D('',#2008,#1647,#1648);
#1322=AXIS2_PLACEMENT_3D('',#2009,#1649,#1650);
#1323=AXIS2_PLACEMENT_3D('',#2010,#1651,#1652);
#1324=AXIS2_PLACEMENT_3D('',#2011,#1653,#1654);
#1325=AXIS2_PLACEMENT_3D('',#2012,#1655,#1656);
#1326=AXIS2_PLACEMENT_3D('',#2013,#1657,#1658);
#1327=AXIS2_PLACEMENT_3D('',#2014,#1659,#1660);
#1328=AXIS2_PLACEMENT_3D('',#2015,#1661,#1662);
#1329=AXIS2_PLACEMENT_3D('',#2016,#1663,#1664);
#1330=AXIS2_PLACEMENT_3D('',#2017,#1665,#1666);
#1331=AXIS2_PLACEMENT_3D('',#2018,#1667,#1668);
#1332=AXIS2_PLACEMENT_3D('',#2019,#1669,#1670);
#1333=AXIS2_PLACEMENT_3D('',#2020,#1671,#1672);
#1334=AXIS2_PLACEMENT_3D('',#2021,#1673,#1674);
#1335=AXIS2_PLACEMENT_3D('',#2022,#1675,#1676);
#1336=AXIS2_PLACEMENT_3D('',#2023,#1677,#1678);
#1337=AXIS2_PLACEMENT_3D('',#2024,#1679,#1680);
#1338=DIRECTION('',(0.,0.,1.));
#1339=DIRECTION('',(1.,0.,0.));
#1340=DIRECTION('',(-6.07153216591883E-16,1.,0.));
#1341=DIRECTION('',(-1.,-6.07153216591883E-16,0.));
#1342=DIRECTION('',(1.,6.07153216591883E-16,0.));
#1343=DIRECTION('',(0.,0.,-1.));
#1344=DIRECTION('',(1.,6.07153216591883E-16,0.));
#1345=DIRECTION('',(0.,0.,-1.));
#1346=DIRECTION('',(1.,6.07153216591883E-16,0.));
#1347=DIRECTION('',(6.07153216591883E-16,-1.,0.));
#1348=DIRECTION('',(1.,6.07153216591883E-16,0.));
#1349=DIRECTION('',(1.,6.07153216591883E-16,0.));
#1350=DIRECTION('',(6.07153216591883E-16,-1.,0.));
#1351=DIRECTION('',(1.,6.07153216591883E-16,0.));
#1352=DIRECTION('',(-5.71886860212134E-16,1.,0.));
#1353=DIRECTION('',(-1.,-5.71886860212134E-16,0.));
#1354=DIRECTION('',(1.,6.0867490385151E-16,0.));
#1355=DIRECTION('',(0.,0.,-1.));
#1356=DIRECTION('',(1.,5.71886860212134E-16,0.));
#1357=DIRECTION('',(0.,0.,-1.));
#1358=DIRECTION('',(1.,5.71886860212134E-16,0.));
#1359=DIRECTION('',(0.,0.,-1.));
#1360=DIRECTION('',(6.07153216591883E-16,-1.,0.));
#1361=DIRECTION('',(1.,6.07153216591883E-16,0.));
#1362=DIRECTION('',(1.,6.07153216591883E-16,0.));
#1363=DIRECTION('',(6.07153216591883E-16,-1.,0.));
#1364=DIRECTION('',(1.,6.07153216591883E-16,0.));
#1365=DIRECTION('',(1.,6.07153216591883E-16,0.));
#1366=DIRECTION('',(1.,0.,0.));
#1367=DIRECTION('',(0.,0.,-1.));
#1368=DIRECTION('',(0.,-1.,-4.99201000281096E-16));
#1369=DIRECTION('',(0.,0.,-1.));
#1370=DIRECTION('',(0.,-1.,0.));
#1371=DIRECTION('',(0.,0.,-1.));
#1372=DIRECTION('',(1.,0.,0.));
#1373=DIRECTION('',(0.,0.,-1.));
#1374=DIRECTION('',(0.,0.498471124258083,0.866906303057535));
#1375=DIRECTION('',(0.,-1.,-4.99201000281096E-16));
#1376=DIRECTION('',(0.,0.,-1.));
#1377=DIRECTION('',(0.,-1.,0.));
#1378=DIRECTION('',(0.,0.,-1.));
#1379=DIRECTION('',(0.,-1.,0.));
#1380=DIRECTION('',(0.,0.,-1.));
#1381=DIRECTION('',(0.,-1.,0.));
#1382=DIRECTION('',(0.,-1.,0.));
#1383=DIRECTION('',(1.15648231731787E-16,-1.,0.));
#1384=DIRECTION('',(1.,1.15648231731787E-16,0.));
#1385=DIRECTION('',(-1.,-1.15648231731787E-16,-5.77317129612482E-32));
#1386=DIRECTION('',(0.,0.,-1.));
#1387=DIRECTION('',(-1.,-1.24800250070274E-16,0.));
#1388=DIRECTION('',(0.,0.,-1.));
#1389=DIRECTION('',(-1.,-1.15648231731787E-16,0.));
#1390=DIRECTION('',(0.,0.,-1.));
#1391=DIRECTION('',(-1.,-1.24800250070274E-16,0.));
#1392=DIRECTION('',(0.,0.,-1.));
#1393=DIRECTION('',(-1.,-1.24800250070274E-16,0.));
#1394=DIRECTION('',(0.,0.,1.));
#1395=DIRECTION('',(1.,0.,0.));
#1396=DIRECTION('',(0.,0.,-1.));
#1397=DIRECTION('',(0.,-1.,0.));
#1398=DIRECTION('',(0.,0.,-1.));
#1399=DIRECTION('',(0.,-1.,0.));
#1400=DIRECTION('',(0.,-0.498471124258083,0.866906303057535));
#1401=DIRECTION('',(0.,-1.,-4.99201000281096E-16));
#1402=DIRECTION('',(0.,0.498471124258083,0.866906303057535));
#1403=DIRECTION('',(0.,-1.,0.));
#1404=DIRECTION('',(0.,0.,-1.));
#1405=DIRECTION('',(3.66608227391833E-16,-1.,0.));
#1406=DIRECTION('',(1.,3.66608227391833E-16,0.));
#1407=DIRECTION('',(0.,0.,-1.));
#1408=DIRECTION('',(-1.,-3.66608227391833E-16,-1.83011193825282E-31));
#1409=DIRECTION('',(-1.,-3.66608227391833E-16,0.));
#1410=DIRECTION('',(0.,0.,-1.));
#1411=DIRECTION('',(-1.,0.,0.));
#1412=DIRECTION('',(0.,0.,1.));
#1413=DIRECTION('',(0.,1.,4.99201000281096E-16));
#1414=DIRECTION('',(0.,1.,0.));
#1415=DIRECTION('',(0.,0.,-1.));
#1416=DIRECTION('',(1.45165144433206E-16,-1.,0.));
#1417=DIRECTION('',(1.,1.45165144433206E-16,0.));
#1418=DIRECTION('',(-1.,-1.45165144433206E-16,-7.2466585307006E-32));
#1419=DIRECTION('',(-1.,-1.45165144433206E-16,0.));
#1420=DIRECTION('',(-1.,0.,0.));
#1421=DIRECTION('',(0.,0.,1.));
#1422=DIRECTION('',(0.,-0.498471124258083,-0.866906303057535));
#1423=DIRECTION('',(0.,1.,0.));
#1424=DIRECTION('',(0.,1.,0.));
#1425=DIRECTION('',(0.,1.,4.99201000281096E-16));
#1426=DIRECTION('',(0.,0.,1.));
#1427=DIRECTION('',(1.,0.,0.));
#1428=DIRECTION('',(0.,0.,1.));
#1429=DIRECTION('',(1.,0.,0.));
#1430=DIRECTION('',(1.,0.,0.));
#1431=DIRECTION('',(0.,0.,1.));
#1432=DIRECTION('',(1.,0.,0.));
#1433=DIRECTION('',(-0.989949493661167,-0.141421356237309,0.));
#1434=DIRECTION('',(0.,0.,1.));
#1435=DIRECTION('',(1.,0.,0.));
#1436=DIRECTION('',(0.,-1.,0.));
#1437=DIRECTION('',(0.,0.,1.));
#1438=DIRECTION('',(1.,0.,0.));
#1439=DIRECTION('',(-0.989949493661166,0.14142135623731,0.));
#1440=DIRECTION('',(0.,0.,1.));
#1441=DIRECTION('',(1.,0.,0.));
#1442=DIRECTION('',(0.,0.,1.));
#1443=DIRECTION('',(1.,0.,0.));
#1444=DIRECTION('',(1.,0.,0.));
#1445=DIRECTION('',(1.,0.,0.));
#1446=DIRECTION('',(0.,-1.,0.));
#1447=DIRECTION('',(0.,-1.,0.));
#1448=DIRECTION('',(-1.,-1.10727030381498E-16,0.));
#1449=DIRECTION('',(0.,-1.,0.));
#1450=DIRECTION('',(1.,0.,0.));
#1451=DIRECTION('',(-1.,0.,0.));
#1452=DIRECTION('',(0.,0.,1.));
#1453=DIRECTION('',(0.,1.,0.));
#1454=DIRECTION('',(0.,1.,0.));
#1455=DIRECTION('',(0.,0.,-1.));
#1456=DIRECTION('',(-1.,0.,0.));
#1457=DIRECTION('',(0.,0.,1.));
#1458=DIRECTION('',(0.,1.,0.));
#1459=DIRECTION('',(0.,0.,-1.));
#1460=DIRECTION('',(0.,1.,0.));
#1461=DIRECTION('',(0.141421356237309,-0.989949493661167,0.));
#1462=DIRECTION('',(0.989949493661167,0.141421356237309,0.));
#1463=DIRECTION('',(0.,0.,-1.));
#1464=DIRECTION('',(-0.989949493661167,-0.141421356237309,0.));
#1465=DIRECTION('',(0.,0.,-1.));
#1466=DIRECTION('',(1.,0.,0.));
#1467=DIRECTION('',(0.,0.,-1.));
#1468=DIRECTION('',(0.,0.,-1.));
#1469=DIRECTION('',(0.,-1.,0.));
#1470=DIRECTION('',(0.,0.,-1.));
#1471=DIRECTION('',(-0.14142135623731,-0.989949493661167,0.));
#1472=DIRECTION('',(0.989949493661167,-0.14142135623731,0.));
#1473=DIRECTION('',(0.,0.,-1.));
#1474=DIRECTION('',(-0.989949493661167,0.14142135623731,0.));
#1475=DIRECTION('',(0.,0.,-1.));
#1476=DIRECTION('',(0.,0.,-1.));
#1477=DIRECTION('',(-1.,0.,0.));
#1478=DIRECTION('',(0.,0.,-1.));
#1479=DIRECTION('',(1.,0.,0.));
#1480=DIRECTION('',(0.,0.,-1.));
#1481=DIRECTION('',(1.,0.,0.));
#1482=DIRECTION('',(0.,1.,0.));
#1483=DIRECTION('',(0.,0.,1.));
#1484=DIRECTION('',(1.,0.,0.));
#1485=DIRECTION('',(1.,0.,0.));
#1486=DIRECTION('',(0.,1.,0.));
#1487=DIRECTION('',(0.,0.,1.));
#1488=DIRECTION('',(0.,0.,-1.));
#1489=DIRECTION('',(1.,0.,0.));
#1490=DIRECTION('',(0.,0.,-1.));
#1491=DIRECTION('',(0.,0.,-1.));
#1492=DIRECTION('',(-1.,0.,0.));
#1493=DIRECTION('',(0.,0.,1.));
#1494=DIRECTION('',(1.,0.,0.));
#1495=DIRECTION('',(0.,0.,1.));
#1496=DIRECTION('',(1.,0.,0.));
#1497=DIRECTION('',(0.,0.,1.));
#1498=DIRECTION('',(1.,0.,0.));
#1499=DIRECTION('',(0.,0.,1.));
#1500=DIRECTION('',(1.,0.,0.));
#1501=DIRECTION('',(0.,-1.,0.));
#1502=DIRECTION('',(0.95854358905678,-0.284945938518428,0.));
#1503=DIRECTION('',(0.818556692462414,-0.574425749096429,0.));
#1504=DIRECTION('',(0.,-1.,0.));
#1505=DIRECTION('',(-1.,-9.53144767020224E-17,0.));
#1506=DIRECTION('',(0.,1.,0.));
#1507=DIRECTION('',(-0.818556692462415,-0.574425749096427,0.));
#1508=DIRECTION('',(-1.,-1.10727030381498E-16,0.));
#1509=DIRECTION('',(0.,-1.,0.));
#1510=DIRECTION('',(0.,0.,1.));
#1511=DIRECTION('',(1.,0.,0.));
#1512=DIRECTION('',(1.,0.,0.));
#1513=DIRECTION('',(0.,-1.,0.));
#1514=DIRECTION('',(1.,6.07153216591883E-16,0.));
#1515=DIRECTION('',(-0.989949493661167,0.14142135623731,0.));
#1516=DIRECTION('',(0.,-1.,0.));
#1517=DIRECTION('',(-0.989949493661167,-0.141421356237309,0.));
#1518=DIRECTION('',(1.10727030381498E-16,-1.,0.));
#1519=DIRECTION('',(1.,1.10727030381498E-16,0.));
#1520=DIRECTION('',(0.,0.,-1.));
#1521=DIRECTION('',(0.,0.,-1.));
#1522=DIRECTION('',(1.,0.,0.));
#1523=DIRECTION('',(0.,0.,-1.));
#1524=DIRECTION('',(0.574425749096427,-0.818556692462415,0.));
#1525=DIRECTION('',(0.818556692462415,0.574425749096427,0.));
#1526=DIRECTION('',(0.,0.,-1.));
#1527=DIRECTION('',(-0.818556692462415,-0.574425749096427,0.));
#1528=DIRECTION('',(-1.,0.,0.));
#1529=DIRECTION('',(0.,0.,1.));
#1530=DIRECTION('',(0.,0.,-1.));
#1531=DIRECTION('',(0.,1.,0.));
#1532=DIRECTION('',(9.53144767020224E-17,-1.,0.));
#1533=DIRECTION('',(1.,9.53144767020224E-17,0.));
#1534=DIRECTION('',(0.,0.,-1.));
#1535=DIRECTION('',(-1.,-9.53144767020224E-17,0.));
#1536=DIRECTION('',(1.,0.,0.));
#1537=DIRECTION('',(0.,0.,-1.));
#1538=DIRECTION('',(0.,0.,-1.));
#1539=DIRECTION('',(0.,-1.,0.));
#1540=DIRECTION('',(0.574425749096429,0.818556692462414,0.));
#1541=DIRECTION('',(-0.818556692462414,0.574425749096429,0.));
#1542=DIRECTION('',(0.818556692462414,-0.574425749096429,0.));
#1543=DIRECTION('',(0.,0.,1.));
#1544=DIRECTION('',(1.,0.,0.));
#1545=DIRECTION('',(1.,0.,0.));
#1546=DIRECTION('',(0.,0.,-1.));
#1547=DIRECTION('',(0.,-1.,0.));
#1548=DIRECTION('',(0.,0.,-1.));
#1549=DIRECTION('',(0.284945938518428,0.95854358905678,0.));
#1550=DIRECTION('',(-0.95854358905678,0.284945938518428,0.));
#1551=DIRECTION('',(0.95854358905678,-0.284945938518428,0.));
#1552=DIRECTION('',(0.,0.,1.));
#1553=DIRECTION('',(1.,0.,0.));
#1554=DIRECTION('',(0.,0.,-1.));
#1555=DIRECTION('',(-1.,0.,0.));
#1556=DIRECTION('',(0.,0.,1.));
#1557=DIRECTION('',(1.,0.,0.));
#1558=DIRECTION('',(0.,0.,1.));
#1559=DIRECTION('',(1.,0.,0.));
#1560=DIRECTION('',(0.,0.,-1.));
#1561=DIRECTION('',(-1.,0.,0.));
#1562=DIRECTION('',(0.,0.,1.));
#1563=DIRECTION('',(1.,0.,0.));
#1564=DIRECTION('',(0.,0.,1.));
#1565=DIRECTION('',(1.,0.,0.));
#1566=DIRECTION('',(0.,0.,1.));
#1567=DIRECTION('',(1.,0.,0.));
#1568=DIRECTION('',(0.,-4.99201000281096E-16,1.));
#1569=DIRECTION('',(0.,-1.,-4.99201000281096E-16));
#1570=DIRECTION('',(0.,-1.,-4.99201000281096E-16));
#1571=DIRECTION('',(1.,0.,0.));
#1572=DIRECTION('',(0.,0.866906303057535,-0.498471124258083));
#1573=DIRECTION('',(0.,0.498471124258083,0.866906303057535));
#1574=DIRECTION('',(0.,0.498471124258083,0.866906303057535));
#1575=DIRECTION('',(1.,0.,0.));
#1576=DIRECTION('',(0.,1.,0.));
#1577=DIRECTION('',(0.,-4.99201000281096E-16,1.));
#1578=DIRECTION('',(0.,-1.,-4.99201000281096E-16));
#1579=DIRECTION('',(0.,-4.99201000281096E-16,1.));
#1580=DIRECTION('',(0.,-1.,-4.99201000281096E-16));
#1581=DIRECTION('',(1.,0.,0.));
#1582=DIRECTION('',(1.,0.,0.));
#1583=DIRECTION('',(0.,-1.,-4.99201000281096E-16));
#1584=DIRECTION('',(0.,0.866906303057535,-0.498471124258083));
#1585=DIRECTION('',(0.,0.498471124258083,0.866906303057535));
#1586=DIRECTION('',(1.,0.,0.));
#1587=DIRECTION('',(0.,1.,0.));
#1588=DIRECTION('',(0.,-0.498471124258083,0.866906303057535));
#1589=DIRECTION('',(0.,0.866906303057535,0.498471124258083));
#1590=DIRECTION('',(0.,-0.498471124258083,0.866906303057535));
#1591=DIRECTION('',(0.,0.,-1.));
#1592=DIRECTION('',(-1.,0.,0.));
#1593=DIRECTION('',(6.07153216591883E-16,-1.,0.));
#1594=DIRECTION('',(6.07153216591883E-16,-1.,0.));
#1595=DIRECTION('',(6.07153216591883E-16,-1.,0.));
#1596=DIRECTION('',(1.,6.07153216591883E-16,0.));
#1597=DIRECTION('',(6.07153216591883E-16,-1.,0.));
#1598=DIRECTION('',(0.,0.,-1.));
#1599=DIRECTION('',(-1.,0.,0.));
#1600=DIRECTION('',(6.07153216591883E-16,-1.,0.));
#1601=DIRECTION('',(6.07153216591883E-16,-1.,0.));
#1602=DIRECTION('',(1.,6.07153216591883E-16,0.));
#1603=DIRECTION('',(0.,-4.99201000281096E-16,1.));
#1604=DIRECTION('',(0.,-1.,-4.99201000281096E-16));
#1605=DIRECTION('',(0.,-4.99201000281096E-16,1.));
#1606=DIRECTION('',(0.,-1.,-4.99201000281096E-16));
#1607=DIRECTION('',(0.,-4.99201000281096E-16,1.));
#1608=DIRECTION('',(1.,0.,0.));
#1609=DIRECTION('',(0.,0.,1.));
#1610=DIRECTION('',(1.,0.,0.));
#1611=DIRECTION('',(0.,0.,-1.));
#1612=DIRECTION('',(-1.,0.,0.));
#1613=DIRECTION('',(0.,0.,-1.));
#1614=DIRECTION('',(-1.,0.,0.));
#1615=DIRECTION('',(-0.989949493661167,0.14142135623731,0.));
#1616=DIRECTION('',(-0.14142135623731,-0.989949493661167,0.));
#1617=DIRECTION('',(0.,-1.,0.));
#1618=DIRECTION('',(0.,0.,-1.));
#1619=DIRECTION('',(0.,0.,-1.));
#1620=DIRECTION('',(-1.,0.,0.));
#1621=DIRECTION('',(0.,0.,-1.));
#1622=DIRECTION('',(-1.,0.,0.));
#1623=DIRECTION('',(0.,-1.,0.));
#1624=DIRECTION('',(0.,0.,-1.));
#1625=DIRECTION('',(-4.33680868994202E-16,1.,0.));
#1626=DIRECTION('',(-1.,-4.33680868994202E-16,0.));
#1627=DIRECTION('',(0.989949493661167,-0.14142135623731,0.));
#1628=DIRECTION('',(0.14142135623731,0.989949493661167,0.));
#1629=DIRECTION('',(0.989949493661167,-0.14142135623731,-3.10108593524213E-15));
#1630=DIRECTION('',(0.14142135623731,0.989949493661167,0.));
#1631=DIRECTION('',(0.,0.,1.));
#1632=DIRECTION('',(1.,0.,0.));
#1633=DIRECTION('',(0.,0.,-1.));
#1634=DIRECTION('',(-1.,0.,0.));
#1635=DIRECTION('',(0.,0.,-1.));
#1636=DIRECTION('',(-1.,0.,0.));
#1637=DIRECTION('',(-0.989949493661166,-0.14142135623731,-6.13317366673351E-17));
#1638=DIRECTION('',(0.14142135623731,-0.989949493661167,0.));
#1639=DIRECTION('',(2.81892564846231E-15,0.,-1.));
#1640=DIRECTION('',(-1.,0.,-2.81892564846231E-15));
#1641=DIRECTION('',(-1.,-3.67273485929464E-15,0.));
#1642=DIRECTION('',(3.67273485929464E-15,-1.,0.));
#1643=DIRECTION('',(0.,0.,1.));
#1644=DIRECTION('',(1.,0.,0.));
#1645=DIRECTION('',(0.,0.,-1.));
#1646=DIRECTION('',(-1.,0.,0.));
#1647=DIRECTION('',(-0.989949493661167,-0.141421356237309,0.));
#1648=DIRECTION('',(0.141421356237309,-0.989949493661167,0.));
#1649=DIRECTION('',(0.989949493661166,0.14142135623731,0.));
#1650=DIRECTION('',(-0.14142135623731,0.989949493661167,0.));
#1651=DIRECTION('',(1.,6.07153216591883E-16,0.));
#1652=DIRECTION('',(-6.07153216591883E-16,1.,0.));
#1653=DIRECTION('',(1.,0.,0.));
#1654=DIRECTION('',(0.,0.,-1.));
#1655=DIRECTION('',(0.,0.,1.));
#1656=DIRECTION('',(1.,0.,0.));
#1657=DIRECTION('',(0.,0.,-1.));
#1658=DIRECTION('',(-1.,0.,0.));
#1659=DIRECTION('',(5.28548559086683E-16,0.,-1.));
#1660=DIRECTION('',(-1.,0.,-5.28548559086683E-16));
#1661=DIRECTION('',(-1.,0.,-8.67361737988404E-16));
#1662=DIRECTION('',(-8.67361737988404E-16,0.,1.));
#1663=DIRECTION('',(0.,-1.,0.));
#1664=DIRECTION('',(0.,0.,-1.));
#1665=DIRECTION('',(0.,-1.,0.));
#1666=DIRECTION('',(0.,0.,-1.));
#1667=DIRECTION('',(-1.,0.,0.));
#1668=DIRECTION('',(0.,0.,1.));
#1669=DIRECTION('',(1.,0.,0.));
#1670=DIRECTION('',(0.,0.,-1.));
#1671=DIRECTION('',(0.,1.,0.));
#1672=DIRECTION('',(0.,0.,1.));
#1673=DIRECTION('',(0.,1.,0.));
#1674=DIRECTION('',(0.,0.,1.));
#1675=DIRECTION('',(0.,0.,-1.));
#1676=DIRECTION('',(-1.,0.,0.));
#1677=DIRECTION('',(0.,0.,-1.));
#1678=DIRECTION('',(-1.,0.,0.));
#1679=DIRECTION('',(0.,0.,-1.));
#1680=DIRECTION('',(-1.,0.,0.));
#1681=CARTESIAN_POINT('',(0.,0.,0.));
#1682=CARTESIAN_POINT('',(0.04,-0.0165,0.002));
#1683=CARTESIAN_POINT('',(0.04,-0.0165,0.002));
#1684=CARTESIAN_POINT('',(0.000142135623730965,-0.0165,0.002));
#1685=CARTESIAN_POINT('',(0.078,-0.0165,0.002));
#1686=CARTESIAN_POINT('',(0.078,-0.0165,0.0135));
#1687=CARTESIAN_POINT('',(0.078,-0.0165,0.0135));
#1688=CARTESIAN_POINT('',(0.04,-0.0165,0.0135));
#1689=CARTESIAN_POINT('',(0.000142135623730964,-0.0165,0.0135));
#1690=CARTESIAN_POINT('',(0.000142135623730965,-0.0165,0.));
#1691=CARTESIAN_POINT('',(0.064028302312912,-0.0165,0.0082));
#1692=CARTESIAN_POINT('',(0.061028302312912,-0.0165,0.0082));
#1693=CARTESIAN_POINT('',(0.067028302312912,-0.0165,0.0082));
#1694=CARTESIAN_POINT('',(0.067028302312912,-0.0165,0.0063));
#1695=CARTESIAN_POINT('',(0.067028302312912,-0.0165,0.0044));
#1696=CARTESIAN_POINT('',(0.064028302312912,-0.0165,0.0044));
#1697=CARTESIAN_POINT('',(0.061028302312912,-0.0165,0.0044));
#1698=CARTESIAN_POINT('',(0.061028302312912,-0.0165,0.0063));
#1699=CARTESIAN_POINT('',(0.064,-0.0145,0.0135));
#1700=CARTESIAN_POINT('',(0.074525,-0.0145,0.0052));
#1701=CARTESIAN_POINT('',(0.0731,-0.0145,0.0052));
#1702=CARTESIAN_POINT('',(0.07595,-0.0145,0.0052));
#1703=CARTESIAN_POINT('',(0.0731,-0.0145,0.0052));
#1704=CARTESIAN_POINT('',(0.0731,-0.0145,0.002));
#1705=CARTESIAN_POINT('',(0.064,-0.0145,0.002));
#1706=CARTESIAN_POINT('',(0.05205,-0.0145,0.002));
#1707=CARTESIAN_POINT('',(0.05205,-0.0145,0.0135));
#1708=CARTESIAN_POINT('',(0.05205,-0.0145,0.0135));
#1709=CARTESIAN_POINT('',(0.064,-0.0145,0.0135));
#1710=CARTESIAN_POINT('',(0.07595,-0.0145,0.0135));
#1711=CARTESIAN_POINT('',(0.07595,-0.0145,0.0135));
#1712=CARTESIAN_POINT('',(0.067028302312912,-0.0145,0.0063));
#1713=CARTESIAN_POINT('',(0.067028302312912,-0.0145,0.0044));
#1714=CARTESIAN_POINT('',(0.067028302312912,-0.0145,0.0082));
#1715=CARTESIAN_POINT('',(0.064028302312912,-0.0145,0.0082));
#1716=CARTESIAN_POINT('',(0.061028302312912,-0.0145,0.0082));
#1717=CARTESIAN_POINT('',(0.061028302312912,-0.0145,0.0063));
#1718=CARTESIAN_POINT('',(0.061028302312912,-0.0145,0.0044));
#1719=CARTESIAN_POINT('',(0.064028302312912,-0.0145,0.0044));
#1720=CARTESIAN_POINT('',(0.,0.006075,0.0135));
#1721=CARTESIAN_POINT('',(0.,-0.00695,0.0095));
#1722=CARTESIAN_POINT('',(0.,0.0075,0.0095));
#1723=CARTESIAN_POINT('',(0.,0.00465,0.0095));
#1724=CARTESIAN_POINT('',(0.,0.0075,0.0135));
#1725=CARTESIAN_POINT('',(0.,0.0075,0.002));
#1726=CARTESIAN_POINT('',(0.,0.006075,0.002));
#1727=CARTESIAN_POINT('',(0.,0.00465,0.002));
#1728=CARTESIAN_POINT('',(0.,0.00465,0.0135));
#1729=CARTESIAN_POINT('',(0.07595,0.00795,0.0135));
#1730=CARTESIAN_POINT('',(0.07595,-0.00674234382339123,0.02194809769845));
#1731=CARTESIAN_POINT('',(0.07595,-0.0139,0.0095));
#1732=CARTESIAN_POINT('',(0.07595,-0.0116,0.0135));
#1733=CARTESIAN_POINT('',(0.07595,0.00795,0.0095));
#1734=CARTESIAN_POINT('',(0.07595,0.01125,0.0095));
#1735=CARTESIAN_POINT('',(0.07595,0.01125,0.0135));
#1736=CARTESIAN_POINT('',(0.07595,0.01125,0.0052));
#1737=CARTESIAN_POINT('',(0.07595,0.00795,0.0052));
#1738=CARTESIAN_POINT('',(0.07595,0.00465,0.0052));
#1739=CARTESIAN_POINT('',(0.07595,0.00465,0.0052));
#1740=CARTESIAN_POINT('',(0.07595,0.00465,0.002));
#1741=CARTESIAN_POINT('',(0.07595,0.00795,0.002));
#1742=CARTESIAN_POINT('',(0.07595,-0.00834721856580003,0.002));
#1743=CARTESIAN_POINT('',(0.07595,-0.00834721856580003,0.0052));
#1744=CARTESIAN_POINT('',(0.07595,-0.00834721856580003,0.0052));
#1745=CARTESIAN_POINT('',(0.07595,-0.0114236092829,0.0052));
#1746=CARTESIAN_POINT('',(0.07595,0.00795,0.0135));
#1747=CARTESIAN_POINT('',(-0.03155,-0.0075,0.002));
#1748=CARTESIAN_POINT('',(-0.03155,-0.0075,0.0095));
#1749=CARTESIAN_POINT('',(0.05205,-0.0075,0.0095));
#1750=CARTESIAN_POINT('',(0.,-0.0075,0.0095));
#1751=CARTESIAN_POINT('',(0.05205,-0.0075,0.0135));
#1752=CARTESIAN_POINT('',(0.05205,-0.0075,0.002));
#1753=CARTESIAN_POINT('',(-0.0139,-0.0075,0.002));
#1754=CARTESIAN_POINT('',(-0.0278,-0.0075,0.002));
#1755=CARTESIAN_POINT('',(-0.0278,-0.0075,0.002));
#1756=CARTESIAN_POINT('',(-0.0278,-0.0075,0.));
#1757=CARTESIAN_POINT('',(-0.03155,-0.0075,0.));
#1758=CARTESIAN_POINT('',(-0.0353,-0.0075,0.));
#1759=CARTESIAN_POINT('',(-0.0353,-0.0075,0.002));
#1760=CARTESIAN_POINT('',(-0.0353,-0.0075,0.002));
#1761=CARTESIAN_POINT('',(-0.0139,-0.0075,0.002));
#1762=CARTESIAN_POINT('',(-0.047,-0.0075,0.002));
#1763=CARTESIAN_POINT('',(-0.047,-0.0075,0.0135));
#1764=CARTESIAN_POINT('',(-0.047,-0.0075,0.0135));
#1765=CARTESIAN_POINT('',(-0.0139,-0.0075,0.0135));
#1766=CARTESIAN_POINT('',(0.,-0.0075,0.0135));
#1767=CARTESIAN_POINT('',(0.,-0.0075,0.002));
#1768=CARTESIAN_POINT('',(0.08,2.42861286636753E-17,0.002));
#1769=CARTESIAN_POINT('',(0.08,0.0165,0.002));
#1770=CARTESIAN_POINT('',(0.08,-0.0145,0.002));
#1771=CARTESIAN_POINT('',(0.08,0.0145,0.002));
#1772=CARTESIAN_POINT('',(0.08,0.0145,0.002));
#1773=CARTESIAN_POINT('',(0.08,0.0145,0.0135));
#1774=CARTESIAN_POINT('',(0.08,2.42861286636753E-17,0.0135));
#1775=CARTESIAN_POINT('',(0.08,0.0116,0.0135));
#1776=CARTESIAN_POINT('',(0.08,0.01275,0.0115));
#1777=CARTESIAN_POINT('',(0.08,0.0139,0.0095));
#1778=CARTESIAN_POINT('',(0.08,-0.00695,0.0095));
#1779=CARTESIAN_POINT('',(0.08,-0.0139,0.0095));
#1780=CARTESIAN_POINT('',(0.08,-0.01275,0.0115));
#1781=CARTESIAN_POINT('',(0.08,-0.0116,0.0135));
#1782=CARTESIAN_POINT('',(0.08,2.42861286636753E-17,0.0135));
#1783=CARTESIAN_POINT('',(0.08,-0.0145,0.0135));
#1784=CARTESIAN_POINT('',(0.08,-0.0145,0.));
#1785=CARTESIAN_POINT('',(0.026025,0.00465,0.0135));
#1786=CARTESIAN_POINT('',(0.05205,0.00465,0.0135));
#1787=CARTESIAN_POINT('',(0.05205,0.00465,0.0095));
#1788=CARTESIAN_POINT('',(0.05205,0.00465,0.0052));
#1789=CARTESIAN_POINT('',(0.026025,0.00465,0.0095));
#1790=CARTESIAN_POINT('',(0.026025,0.00465,0.002));
#1791=CARTESIAN_POINT('',(0.05205,0.00465,0.002));
#1792=CARTESIAN_POINT('',(0.05205,0.00465,0.0052));
#1793=CARTESIAN_POINT('',(0.05205,0.00795,0.0135));
#1794=CARTESIAN_POINT('',(0.05205,0.00795,0.0095));
#1795=CARTESIAN_POINT('',(0.05205,0.01125,0.0095));
#1796=CARTESIAN_POINT('',(0.05205,0.00795,0.0052));
#1797=CARTESIAN_POINT('',(0.05205,0.01125,0.0052));
#1798=CARTESIAN_POINT('',(0.05205,0.01125,0.0135));
#1799=CARTESIAN_POINT('',(0.064,0.01125,0.0135));
#1800=CARTESIAN_POINT('',(0.064,0.01125,0.0095));
#1801=CARTESIAN_POINT('',(0.064,0.01125,0.0052));
#1802=CARTESIAN_POINT('',(0.05205,-0.011,0.0135));
#1803=CARTESIAN_POINT('',(0.05205,-0.0114509159229685,0.0137592766557069));
#1804=CARTESIAN_POINT('',(0.05205,-0.0116,0.0135));
#1805=CARTESIAN_POINT('',(0.05205,-0.0139,0.0095));
#1806=CARTESIAN_POINT('',(0.05205,-0.011,0.0135));
#1807=CARTESIAN_POINT('',(0.05205,-0.011,0.002));
#1808=CARTESIAN_POINT('',(0.05205,-0.011,0.0095));
#1809=CARTESIAN_POINT('',(0.0155,0.,0.0135));
#1810=CARTESIAN_POINT('',(0.078,0.0145,0.0135));
#1811=CARTESIAN_POINT('',(0.078,0.0165,0.0135));
#1812=CARTESIAN_POINT('',(0.04,0.0165,0.0135));
#1813=CARTESIAN_POINT('',(0.000142135623730943,0.0165,0.0135));
#1814=CARTESIAN_POINT('',(0.000142135623730943,0.0145,0.0135));
#1815=CARTESIAN_POINT('',(-0.000140707088743672,0.0164798989873224,0.0135));
#1816=CARTESIAN_POINT('',(-0.0245,0.013,0.0135));
#1817=CARTESIAN_POINT('',(-0.0472828427124746,0.00974530818393221,0.0135));
#1818=CARTESIAN_POINT('',(-0.047,0.00776540919660987,0.0135));
#1819=CARTESIAN_POINT('',(-0.049,0.00776540919660987,0.0135));
#1820=CARTESIAN_POINT('',(-0.049,0.,0.0135));
#1821=CARTESIAN_POINT('',(-0.049,-0.00776540919660987,0.0135));
#1822=CARTESIAN_POINT('',(-0.047,-0.00776540919660987,0.0135));
#1823=CARTESIAN_POINT('',(-0.0472828427124746,-0.0097453081839322,0.0135));
#1824=CARTESIAN_POINT('',(-0.0245,-0.013,0.0135));
#1825=CARTESIAN_POINT('',(-0.000140707088743659,-0.0164798989873224,0.0135));
#1826=CARTESIAN_POINT('',(0.000142135623730964,-0.0145,0.0135));
#1827=CARTESIAN_POINT('',(0.078,-0.0145,0.0135));
#1828=CARTESIAN_POINT('',(0.,-0.0116,0.0135));
#1829=CARTESIAN_POINT('',(0.,-0.0116,0.0135));
#1830=CARTESIAN_POINT('',(0.,-0.0116,0.0135));
#1831=CARTESIAN_POINT('',(0.,2.42861286636753E-17,0.0135));
#1832=CARTESIAN_POINT('',(-0.047,-7.80625564189563E-18,0.0135));
#1833=CARTESIAN_POINT('',(-0.047,0.0075,0.0135));
#1834=CARTESIAN_POINT('',(-0.0235,0.0075,0.0135));
#1835=CARTESIAN_POINT('',(0.,0.0075,0.0135));
#1836=CARTESIAN_POINT('',(0.,2.42861286636753E-17,0.0135));
#1837=CARTESIAN_POINT('',(0.,0.0116,0.0135));
#1838=CARTESIAN_POINT('',(0.,0.0116,0.0135));
#1839=CARTESIAN_POINT('',(-0.0278,-0.00375,0.002));
#1840=CARTESIAN_POINT('',(-0.0278,-0.00375,0.));
#1841=CARTESIAN_POINT('',(-0.0278,0.,0.));
#1842=CARTESIAN_POINT('',(-0.0278,-0.00375,0.002));
#1843=CARTESIAN_POINT('',(-0.0278,0.,0.002));
#1844=CARTESIAN_POINT('',(-0.0278,0.,0.002));
#1845=CARTESIAN_POINT('',(-0.0353,-0.00375,0.002));
#1846=CARTESIAN_POINT('',(-0.0353,-0.00375,0.));
#1847=CARTESIAN_POINT('',(-0.0353,0.,0.));
#1848=CARTESIAN_POINT('',(-0.0353,0.,0.002));
#1849=CARTESIAN_POINT('',(-0.0353,0.,0.002));
#1850=CARTESIAN_POINT('',(-0.0353,-0.00375,0.002));
#1851=CARTESIAN_POINT('',(-0.0245,0.013,0.002));
#1852=CARTESIAN_POINT('',(-0.000140707088743675,0.0164798989873224,0.));
#1853=CARTESIAN_POINT('',(-0.000140707088743675,0.0164798989873224,0.002));
#1854=CARTESIAN_POINT('',(-0.0245,0.013,0.002));
#1855=CARTESIAN_POINT('',(-0.0472828427124746,0.00974530818393221,0.002));
#1856=CARTESIAN_POINT('',(-0.0472828427124746,0.00974530818393221,0.002));
#1857=CARTESIAN_POINT('',(-0.049,0.,0.002));
#1858=CARTESIAN_POINT('',(-0.049,0.00776540919660987,0.002));
#1859=CARTESIAN_POINT('',(-0.049,0.00776540919660987,0.002));
#1860=CARTESIAN_POINT('',(-0.049,0.,0.002));
#1861=CARTESIAN_POINT('',(-0.049,-0.00776540919660987,0.002));
#1862=CARTESIAN_POINT('',(-0.049,-0.00776540919660987,0.0135));
#1863=CARTESIAN_POINT('',(-0.0245,-0.013,0.002));
#1864=CARTESIAN_POINT('',(-0.0472828427124746,-0.0097453081839322,8.67361737988404E-19));
#1865=CARTESIAN_POINT('',(-0.0472828427124746,-0.0097453081839322,0.002));
#1866=CARTESIAN_POINT('',(1.93201635543711E-17,-0.0165,0.002));
#1867=CARTESIAN_POINT('',(-0.000140707088743655,-0.0164798989873224,0.002));
#1868=CARTESIAN_POINT('',(-0.000140707088743655,-0.0164798989873224,0.0135));
#1869=CARTESIAN_POINT('',(-0.022,-0.00522,0.002));
#1870=CARTESIAN_POINT('',(-0.022,-0.00522,0.002));
#1871=CARTESIAN_POINT('',(-0.02075,-0.00522,0.002));
#1872=CARTESIAN_POINT('',(-0.022,-0.00522,0.));
#1873=CARTESIAN_POINT('',(-0.02075,-0.00522,0.));
#1874=CARTESIAN_POINT('',(-0.03155,0.,0.002));
#1875=CARTESIAN_POINT('',(-0.03155,0.,0.));
#1876=CARTESIAN_POINT('',(-0.03155,0.,0.002));
#1877=CARTESIAN_POINT('',(0.04,0.0165,0.002));
#1878=CARTESIAN_POINT('',(0.078,0.0165,0.002));
#1879=CARTESIAN_POINT('',(0.078,0.0165,0.002));
#1880=CARTESIAN_POINT('',(-3.46944695195361E-18,0.0165,0.002));
#1881=CARTESIAN_POINT('',(0.000142135623730943,0.0165,0.002));
#1882=CARTESIAN_POINT('',(0.000142135623730943,0.0165,0.0135));
#1883=CARTESIAN_POINT('',(-0.022,0.00522,0.002));
#1884=CARTESIAN_POINT('',(-0.022,0.00522,0.002));
#1885=CARTESIAN_POINT('',(-0.02075,0.00522,0.002));
#1886=CARTESIAN_POINT('',(-0.022,0.00522,0.));
#1887=CARTESIAN_POINT('',(-0.02075,0.00522,0.));
#1888=CARTESIAN_POINT('',(0.0155,0.,0.002));
#1889=CARTESIAN_POINT('',(-0.022,-4.29331484142884E-18,0.002));
#1890=CARTESIAN_POINT('',(-0.0187,-4.29331484142884E-18,0.002));
#1891=CARTESIAN_POINT('',(0.0731,-0.011,0.002));
#1892=CARTESIAN_POINT('',(0.0731,-0.0075,0.002));
#1893=CARTESIAN_POINT('',(0.074525,-0.0079236092829,0.002));
#1894=CARTESIAN_POINT('',(0.074525,0.00565,0.002));
#1895=CARTESIAN_POINT('',(0.0731,0.00665,0.002));
#1896=CARTESIAN_POINT('',(0.0731,0.007525,0.002));
#1897=CARTESIAN_POINT('',(0.0731,0.0084,0.002));
#1898=CARTESIAN_POINT('',(0.064,0.0084,0.002));
#1899=CARTESIAN_POINT('',(0.0549,0.0084,0.002));
#1900=CARTESIAN_POINT('',(0.0549,0.007525,0.002));
#1901=CARTESIAN_POINT('',(0.0549,0.00665,0.002));
#1902=CARTESIAN_POINT('',(0.053475,0.00565,0.002));
#1903=CARTESIAN_POINT('',(-0.0235,0.0075,0.002));
#1904=CARTESIAN_POINT('',(-0.047,0.0075,0.002));
#1905=CARTESIAN_POINT('',(-0.047,-7.80625564189563E-18,0.002));
#1906=CARTESIAN_POINT('',(0.0155,0.,0.));
#1907=CARTESIAN_POINT('',(0.08,0.0145,0.));
#1908=CARTESIAN_POINT('',(0.000142135623730945,0.0145,0.));
#1909=CARTESIAN_POINT('',(0.078,0.0145,0.));
#1910=CARTESIAN_POINT('',(0.078,-0.0165,0.));
#1911=CARTESIAN_POINT('',(0.078,-0.0145,0.));
#1912=CARTESIAN_POINT('',(0.0155,-0.0145,0.));
#1913=CARTESIAN_POINT('',(0.000142135623730958,-0.0145,0.));
#1914=CARTESIAN_POINT('',(-0.0487171572875254,-0.00752010101267767,0.));
#1915=CARTESIAN_POINT('',(-0.047,-0.00776540919660987,0.));
#1916=CARTESIAN_POINT('',(-0.047,0.,0.));
#1917=CARTESIAN_POINT('',(-0.047,0.00776540919660987,0.));
#1918=CARTESIAN_POINT('',(0.0131628427124746,0.0163601010126776,0.));
#1919=CARTESIAN_POINT('',(-0.0235,0.0075,0.0135));
#1920=CARTESIAN_POINT('',(0.,0.0075,0.0135));
#1921=CARTESIAN_POINT('',(-0.047,0.0075,0.0135));
#1922=CARTESIAN_POINT('',(-0.047,-7.80625564189563E-18,0.0135));
#1923=CARTESIAN_POINT('',(0.053475,0.00565,0.0052));
#1924=CARTESIAN_POINT('',(0.0549,0.00665,0.0052));
#1925=CARTESIAN_POINT('',(0.0549,0.00665,0.0052));
#1926=CARTESIAN_POINT('',(0.053475,0.00565,0.0052));
#1927=CARTESIAN_POINT('',(0.0549,0.007525,0.0052));
#1928=CARTESIAN_POINT('',(0.0549,0.0084,0.0052));
#1929=CARTESIAN_POINT('',(0.0549,0.0084,0.0052));
#1930=CARTESIAN_POINT('',(0.0549,0.007525,0.0052));
#1931=CARTESIAN_POINT('',(0.064,0.0084,0.0052));
#1932=CARTESIAN_POINT('',(0.0731,0.0084,0.0052));
#1933=CARTESIAN_POINT('',(0.0731,0.0084,0.0052));
#1934=CARTESIAN_POINT('',(0.064,0.0084,0.0052));
#1935=CARTESIAN_POINT('',(0.0731,0.007525,0.0052));
#1936=CARTESIAN_POINT('',(0.0731,0.00665,0.0052));
#1937=CARTESIAN_POINT('',(0.0731,0.00665,0.0052));
#1938=CARTESIAN_POINT('',(0.0731,0.007525,0.0052));
#1939=CARTESIAN_POINT('',(0.074525,0.00565,0.0052));
#1940=CARTESIAN_POINT('',(0.074525,0.00565,0.0052));
#1941=CARTESIAN_POINT('',(0.0155,0.,0.0052));
#1942=CARTESIAN_POINT('',(0.0731,-0.011,0.0052));
#1943=CARTESIAN_POINT('',(0.0731,-0.011,0.0052));
#1944=CARTESIAN_POINT('',(0.0731,-0.0075,0.0052));
#1945=CARTESIAN_POINT('',(0.0731,-0.0075,0.0052));
#1946=CARTESIAN_POINT('',(0.074525,-0.0079236092829,0.0052));
#1947=CARTESIAN_POINT('',(0.074525,-0.0079236092829,0.0052));
#1948=CARTESIAN_POINT('',(0.0155,0.,0.0052));
#1949=CARTESIAN_POINT('',(-0.022,-4.42802598933504E-18,0.01));
#1950=CARTESIAN_POINT('',(-0.022,-4.42802598933504E-18,0.01));
#1951=CARTESIAN_POINT('',(-0.0209,-4.42802598933504E-18,0.01));
#1952=CARTESIAN_POINT('',(-0.022,-4.42802598933504E-18,0.002));
#1953=CARTESIAN_POINT('',(-0.0209,-4.42802598933504E-18,0.002));
#1954=CARTESIAN_POINT('',(-0.022,-4.29331484142884E-18,0.01));
#1955=CARTESIAN_POINT('',(-0.022,-4.29331484142884E-18,0.01));
#1956=CARTESIAN_POINT('',(-0.0187,-4.29331484142884E-18,0.01));
#1957=CARTESIAN_POINT('',(0.0155,0.,0.01));
#1958=CARTESIAN_POINT('',(0.0155,0.,0.002));
#1959=CARTESIAN_POINT('',(0.,-0.00695,0.0095));
#1960=CARTESIAN_POINT('',(0.,-0.00695,0.0095));
#1961=CARTESIAN_POINT('',(0.,-0.0139,0.0095));
#1962=CARTESIAN_POINT('',(0.,-0.0139,0.0095));
#1963=CARTESIAN_POINT('',(0.,-0.01275,0.0115));
#1964=CARTESIAN_POINT('',(0.,-0.01275,0.0115));
#1965=CARTESIAN_POINT('',(0.,2.42861286636753E-17,0.00675));
#1966=CARTESIAN_POINT('',(0.,-0.00695,0.0095));
#1967=CARTESIAN_POINT('',(0.0058,0.0089,0.0095));
#1968=CARTESIAN_POINT('',(0.0058,0.0054,0.0095));
#1969=CARTESIAN_POINT('',(0.,-0.0139,0.0095));
#1970=CARTESIAN_POINT('',(0.,0.0139,0.0095));
#1971=CARTESIAN_POINT('',(0.,0.0139,0.0095));
#1972=CARTESIAN_POINT('',(0.,-0.00695,0.0095));
#1973=CARTESIAN_POINT('',(0.,-0.01275,0.0115));
#1974=CARTESIAN_POINT('',(0.,2.42861286636753E-17,0.00675));
#1975=CARTESIAN_POINT('',(0.,0.01275,0.0115));
#1976=CARTESIAN_POINT('',(0.,0.01275,0.0115));
#1977=CARTESIAN_POINT('',(0.064028302312912,-0.0145,0.0082));
#1978=CARTESIAN_POINT('',(0.061028302312912,-0.0145,0.0082));
#1979=CARTESIAN_POINT('',(0.067028302312912,-0.0145,0.0082));
#1980=CARTESIAN_POINT('',(0.061028302312912,-0.0145,0.0063));
#1981=CARTESIAN_POINT('',(0.061028302312912,-0.0145,0.0044));
#1982=CARTESIAN_POINT('',(0.064028302312912,-0.0145,0.0044));
#1983=CARTESIAN_POINT('',(0.067028302312912,-0.0145,0.0044));
#1984=CARTESIAN_POINT('',(0.067028302312912,-0.0145,0.0063));
#1985=CARTESIAN_POINT('',(0.0058,0.0089,0.0081));
#1986=CARTESIAN_POINT('',(0.0058,0.0089,0.0081));
#1987=CARTESIAN_POINT('',(0.0058,0.0054,0.0081));
#1988=CARTESIAN_POINT('',(0.04,2.89536580163035E-18,0.0081));
#1989=CARTESIAN_POINT('',(-0.047,-0.00776540919660987,0.002));
#1990=CARTESIAN_POINT('',(-0.047,-0.00776540919660987,0.002));
#1991=CARTESIAN_POINT('',(-0.047,-0.00776540919660987,0.002));
#1992=CARTESIAN_POINT('',(-0.047,-0.00776540919660987,0.002));
#1993=CARTESIAN_POINT('',(-0.047,-0.00776540919660987,0.002));
#1994=CARTESIAN_POINT('',(-0.047,0.00776540919660987,0.002));
#1995=CARTESIAN_POINT('',(-0.047,0.00776540919660987,0.002));
#1996=CARTESIAN_POINT('',(-0.047,0.,0.002));
#1997=CARTESIAN_POINT('',(-0.047,0.00776540919660987,0.002));
#1998=CARTESIAN_POINT('',(0.0131628427124746,-0.0163601010126777,0.002));
#1999=CARTESIAN_POINT('',(0.000142135623730964,-0.0145,0.002));
#2000=CARTESIAN_POINT('',(0.000142135623730964,-0.0145,0.002));
#2001=CARTESIAN_POINT('',(0.000142135623730964,-0.0145,0.002));
#2002=CARTESIAN_POINT('',(-0.047,0.00776540919660987,0.002));
#2003=CARTESIAN_POINT('',(-0.047,0.00776540919660987,0.002));
#2004=CARTESIAN_POINT('',(0.000142135623730952,-0.0145,0.002));
#2005=CARTESIAN_POINT('',(0.000142135623730958,-0.0145,0.002));
#2006=CARTESIAN_POINT('',(0.000142135623730943,0.0145,0.002));
#2007=CARTESIAN_POINT('',(0.000142135623730944,0.0145,0.002));
#2008=CARTESIAN_POINT('',(-0.0242171572875254,0.0110201010126777,0.002));
#2009=CARTESIAN_POINT('',(0.000142135623730945,0.0145,0.002));
#2010=CARTESIAN_POINT('',(0.04,-0.0145,0.002));
#2011=CARTESIAN_POINT('',(0.078,-0.0145,0.002));
#2012=CARTESIAN_POINT('',(0.078,-0.0145,0.002));
#2013=CARTESIAN_POINT('',(0.078,-0.0145,0.002));
#2014=CARTESIAN_POINT('',(0.000142135623730944,0.0145,0.002));
#2015=CARTESIAN_POINT('',(0.000142135623730943,0.0145,0.002));
#2016=CARTESIAN_POINT('',(0.078,-0.0145,0.002));
#2017=CARTESIAN_POINT('',(0.078,-0.0145,0.002));
#2018=CARTESIAN_POINT('',(0.0155,0.0145,0.002));
#2019=CARTESIAN_POINT('',(0.078,0.0145,0.002));
#2020=CARTESIAN_POINT('',(0.078,0.,0.002));
#2021=CARTESIAN_POINT('',(0.078,0.0145,0.002));
#2022=CARTESIAN_POINT('',(0.078,0.0145,0.002));
#2023=CARTESIAN_POINT('',(0.078,0.0145,0.002));
#2024=CARTESIAN_POINT('',(0.078,0.0145,0.002));
#2025=MECHANICAL_DESIGN_GEOMETRIC_PRESENTATION_REPRESENTATION('',(#1220),
#2026);
#2026=(
GEOMETRIC_REPRESENTATION_CONTEXT(3)
GLOBAL_UNCERTAINTY_ASSIGNED_CONTEXT((#2027))
GLOBAL_UNIT_ASSIGNED_CONTEXT((#2030,#2029,#2028))
REPRESENTATION_CONTEXT('Part 1','TOP_LEVEL_ASSEMBLY_PART')
);
#2027=UNCERTAINTY_MEASURE_WITH_UNIT(LENGTH_MEASURE(1.E-8),#2030,
'DISTANCE_ACCURACY_VALUE','Maximum Tolerance applied to model');
#2028=(
NAMED_UNIT(*)
SI_UNIT($,.STERADIAN.)
SOLID_ANGLE_UNIT()
);
#2029=(
NAMED_UNIT(*)
PLANE_ANGLE_UNIT()
SI_UNIT($,.RADIAN.)
);
#2030=(
LENGTH_UNIT()
NAMED_UNIT(*)
SI_UNIT($,.METRE.)
);
#2031=PRODUCT_DEFINITION_SHAPE('','',#2032);
#2032=PRODUCT_DEFINITION('','',#2034,#2033);
#2033=PRODUCT_DEFINITION_CONTEXT('',#2040,'design');
#2034=PRODUCT_DEFINITION_FORMATION_WITH_SPECIFIED_SOURCE('','',#2036,
 .NOT_KNOWN.);
#2035=PRODUCT_RELATED_PRODUCT_CATEGORY('','',(#2036));
#2036=PRODUCT('Part 1','Part 1','Part 1',(#2038));
#2037=PRODUCT_CATEGORY('','');
#2038=PRODUCT_CONTEXT('',#2040,'mechanical');
#2039=APPLICATION_PROTOCOL_DEFINITION('international standard',
'ap242_managed_model_based_3d_engineering',2020,#2040);
#2040=APPLICATION_CONTEXT('managed model based 3d engineering');
ENDSEC;
END-ISO-10303-21;
